<svg width="124" height="129" viewBox="0 0 124 129" fill="none" xmlns="http://www.w3.org/2000/svg">
<g style="mix-blend-mode:multiply" opacity="0.18">
<path d="M176.1 -32.5347C145.152 -71.5247 88.4619 -78.0462 49.4719 -47.1057C10.4819 -16.1579 3.96045 40.5322 34.9009 79.5222C65.8487 118.512 122.539 125.034 161.536 94.0932C200.512 63.1527 207.04 6.4553 176.1 -32.5347Z" fill="white"/>
<path d="M188.134 -42.0831C151.915 -87.7188 85.5594 -95.3516 39.9164 -59.1398C-5.71939 -22.9207 -13.3522 43.442 22.8669 89.0777C59.086 134.721 125.441 142.354 171.084 106.134C216.72 69.9081 224.353 3.5527 188.134 -42.0831ZM159.679 91.7609C121.976 121.678 67.1575 115.376 37.2332 77.6724C7.31627 39.9692 13.6184 -14.8493 51.3216 -44.7662C89.0249 -74.6905 143.843 -68.381 173.76 -30.6778C203.685 7.02544 197.375 61.8439 159.679 91.7609Z" fill="#8F1816"/>
<path d="M25.9156 21.4944C26.4128 2.22966 33.8701 -16.728 47.8123 -31.3574L100.664 21.4944H25.9156ZM103.493 28.3302L50.6417 81.182C65.2712 95.1242 84.2288 102.582 103.493 103.079V28.3302ZM25.9083 25.5008C26.3104 42.192 31.9546 58.8978 43.1332 72.9863C44.6247 74.8652 46.1893 76.6418 47.8123 78.3453L100.657 25.4935H25.9083V25.5008ZM110.329 25.5008L163.181 78.3526C177.116 63.7305 184.581 44.7655 185.071 25.5008H110.329ZM103.493 18.665V-56.0908C86.8023 -55.6814 70.0965 -50.0519 56.008 -38.8659C54.1291 -37.3745 52.3525 -35.8099 50.649 -34.1868L103.493 18.665ZM107.5 -56.0835V18.6577L160.352 -34.1941C145.73 -48.1291 126.765 -55.5864 107.5 -56.0835ZM107.5 28.3375V103.086C124.198 102.677 140.904 97.0397 154.993 85.8611C156.872 84.3697 158.641 82.8051 160.352 81.182L107.5 28.3375ZM163.181 -31.3574L110.329 21.4944H185.085C184.676 4.80316 179.039 -11.9027 167.86 -25.9911C166.369 -27.8774 164.804 -29.6467 163.181 -31.3574Z" fill="#B44418"/>
<path d="M109.087 25.0615L153.392 68.5551C164.665 56.6015 170.726 41.1824 171.216 25.5002L109.087 25.0615Z" fill="#FBB040"/>
<path d="M153.384 -21.554L109.087 22.0566L171.231 21.4937C170.829 7.82197 166.171 -5.84243 157.011 -17.3866C155.848 -18.8415 154.635 -20.2233 153.384 -21.554Z" fill="#FBB040"/>
<path d="M146.38 75.0037C147.835 73.8485 149.217 72.6275 150.548 71.3773L107.083 27.3135L107.5 89.231C121.172 88.8216 134.843 84.1644 146.38 75.0037Z" fill="#FBB040"/>
<path d="M107.5 -42.2222L107.083 19.8854L150.555 -24.3978C138.601 -35.6715 123.182 -41.7323 107.5 -42.2222Z" fill="#FBB040"/>
<path d="M102.031 22.0569L57.6019 -21.561C46.3282 -9.60011 40.2673 5.81166 39.7775 21.4939L102.031 22.0569Z" fill="#FBB040"/>
<path d="M39.7628 25.5002C40.1722 39.1719 44.8294 52.8363 53.9829 64.3732C55.138 65.8281 56.359 67.2099 57.6092 68.5478L101.739 25.0615L39.7628 25.5002Z" fill="#FBB040"/>
<path d="M64.6205 -28.0168C63.1583 -26.8616 61.7839 -25.6407 60.4459 -24.3905L103.954 19.6734L103.494 -42.2368C89.8218 -41.8274 76.1574 -37.1702 64.6205 -28.0168Z" fill="#FBB040"/>
<path d="M103.954 27.3135L60.4386 71.3847C72.3922 82.6583 87.8186 88.7265 103.494 89.2091L103.954 27.3135Z" fill="#FBB040"/>
<path d="M107.58 -13.7088C108.421 -13.4017 109.035 -12.6194 109.035 -11.669C109.035 -10.7185 108.421 -9.93625 107.58 -9.62918V-7.06299C108.662 -7.04105 109.533 -6.16373 109.533 -5.08169C109.533 -3.99965 108.662 -3.12233 107.58 -3.1004V-0.534199C107.909 -0.13209 108.136 0.365057 108.136 0.920698C108.136 1.48365 107.909 1.97349 107.58 2.38291V5.43896C108.07 5.50476 108.575 5.54862 109.087 5.54862C115.155 5.54862 120.082 0.628262 120.082 -5.44725C120.082 -11.5228 115.155 -16.4431 109.087 -16.4431C108.575 -16.4431 108.078 -16.3992 107.58 -16.3261V-13.7088ZM114.489 -11.0183C115.805 -11.0183 116.88 -9.95087 116.88 -8.62757C116.88 -7.31157 115.805 -6.23683 114.489 -6.23683C113.166 -6.23683 112.099 -7.30426 112.099 -8.62757C112.099 -9.95087 113.166 -11.0183 114.489 -11.0183ZM113.495 -4.02158C115.169 -4.02158 116.529 -2.66172 116.529 -0.987482C116.529 0.686754 115.169 2.04661 113.495 2.04661C111.821 2.04661 110.461 0.686754 110.461 -0.987482C110.461 -2.66172 111.821 -4.02158 113.495 -4.02158Z" fill="#8F1816"/>
<path d="M125.354 67.2397C119.278 67.2397 114.358 72.1674 114.358 78.2356C114.358 84.3111 119.278 89.2315 125.354 89.2315C131.429 89.2315 136.349 84.3038 136.349 78.2356C136.349 72.1601 131.422 67.2397 125.354 67.2397ZM123.109 69.8132C124.315 69.8132 125.302 70.7929 125.302 71.9992C125.302 73.2129 124.323 74.1926 123.109 74.1926C121.903 74.1926 120.916 73.2129 120.916 71.9992C120.923 70.8002 121.903 69.8132 123.109 69.8132ZM117.743 78.9375C117.019 78.9375 116.427 78.3526 116.427 77.6215C116.427 76.8977 117.019 76.3055 117.743 76.3055C118.467 76.3055 119.059 76.8977 119.059 77.6215C119.051 78.3526 118.467 78.9375 117.743 78.9375ZM122.064 86.9431C120.777 86.9431 119.724 85.8976 119.724 84.6036C119.724 83.3095 120.77 82.264 122.064 82.264C123.358 82.264 124.403 83.3095 124.403 84.6036C124.403 85.8903 123.358 86.9431 122.064 86.9431ZM123.804 80.5825C122.707 80.5825 121.815 79.6905 121.815 78.5939C121.815 77.4972 122.707 76.6052 123.804 76.6052C124.9 76.6052 125.792 77.4972 125.792 78.5939C125.792 79.6978 124.908 80.5825 123.804 80.5825ZM129.762 85.7222C128.088 85.7222 126.728 84.3623 126.728 82.688C126.728 81.0138 128.088 79.6539 129.762 79.6539C131.436 79.6539 132.796 81.0138 132.796 82.688C132.796 84.3623 131.436 85.7222 129.762 85.7222ZM130.749 77.4241C129.433 77.4241 128.358 76.3566 128.358 75.0333C128.358 73.7173 129.426 72.6426 130.749 72.6426C132.065 72.6426 133.133 73.71 133.133 75.0333C133.14 76.3566 132.065 77.4241 130.749 77.4241Z" fill="#8F1816"/>
<path d="M85.1208 -2.31055C84.4774 -2.31055 83.856 -2.24476 83.2418 -2.14241L89.0468 3.66259C89.4562 3.33359 89.9534 3.10697 90.5237 3.10697C91.8397 3.10697 92.9071 4.17437 92.9071 5.49036C92.9071 6.06063 92.6804 6.55779 92.3514 6.96721L95.9485 10.5643C96.0508 9.95012 96.1239 9.32867 96.1239 8.6853C96.1166 2.60979 91.1963 -2.31055 85.1208 -2.31055Z" fill="#8F1816"/>
<path d="M80.9899 56.2439C74.9144 56.2439 69.9941 61.1643 69.9941 67.2398C69.9941 73.3153 74.9144 78.2356 80.9899 78.2356C87.0654 78.2356 91.9858 73.3153 91.9858 67.2398C91.9858 61.1643 87.0654 56.2439 80.9899 56.2439ZM78.7528 58.8174C79.9591 58.8174 80.9461 59.7971 80.9461 61.0034C80.9461 62.2171 79.9664 63.1967 78.7528 63.1967C77.5464 63.1967 76.5594 62.2171 76.5594 61.0034C76.5594 59.7971 77.5391 58.8174 78.7528 58.8174ZM73.3791 67.9416C72.6553 67.9416 72.0631 67.3567 72.0631 66.6256C72.0631 65.9018 72.6553 65.3096 73.3791 65.3096C74.1029 65.3096 74.6878 65.9018 74.6878 66.6256C74.6878 67.3567 74.1029 67.9416 73.3791 67.9416ZM77.7 75.9472C76.4132 75.9472 75.3604 74.9018 75.3604 73.6077C75.3604 72.3137 76.4059 71.2682 77.7 71.2682C78.994 71.2682 80.0395 72.3137 80.0395 73.6077C80.0395 74.8945 78.994 75.9472 77.7 75.9472ZM79.4473 69.5866C78.3506 69.5866 77.4587 68.6947 77.4587 67.598C77.4587 66.5013 78.3506 65.6094 79.4473 65.6094C80.544 65.6094 81.4359 66.5013 81.4359 67.598C81.4359 68.702 80.544 69.5866 79.4473 69.5866ZM85.3985 74.7263C83.7243 74.7263 82.3644 73.3664 82.3644 71.6922C82.3644 70.018 83.7243 68.6581 85.3985 68.6581C87.0728 68.6581 88.4326 70.018 88.4326 71.6922C88.4326 73.3664 87.0728 74.7263 85.3985 74.7263ZM86.3855 66.4282C85.0695 66.4282 84.0021 65.3608 84.0021 64.0375C84.0021 62.7215 85.0695 61.6468 86.3855 61.6468C87.7015 61.6468 88.7762 62.7142 88.7762 64.0375C88.7762 65.3608 87.7088 66.4282 86.3855 66.4282Z" fill="#8F1816"/>
<path d="M74.1248 8.67787C74.1248 14.7534 79.0452 19.6737 85.1207 19.6737C88.9517 19.6737 92.3221 17.7143 94.2888 14.7387L92.5561 13.006C92.5561 13.0499 92.5707 13.0864 92.5707 13.1303C92.5707 14.8045 91.2108 16.1644 89.5366 16.1644C87.8623 16.1644 86.5025 14.8045 86.5025 13.1303C86.5025 11.4561 87.8623 10.0962 89.5366 10.0962C89.5804 10.0962 89.617 10.1108 89.6609 10.1108L83.907 4.3497C83.6 4.51785 83.2637 4.63484 82.8835 4.63484C81.6772 4.63484 80.6902 3.65514 80.6902 2.44881C80.6902 2.07595 80.8145 1.73234 80.9826 1.43258L79.0598 -0.490234C76.0915 1.48376 74.1248 4.85417 74.1248 8.67787ZM83.578 7.0548C84.682 7.0548 85.5667 7.94676 85.5667 9.04342C85.5667 10.1401 84.6747 11.032 83.578 11.032C82.4814 11.032 81.5894 10.1401 81.5894 9.04342C81.5894 7.94676 82.4814 7.0548 83.578 7.0548ZM81.838 12.7136C83.1321 12.7136 84.1702 13.7591 84.1702 15.0531C84.1702 16.3399 83.1248 17.3927 81.838 17.3927C80.5439 17.3927 79.4985 16.3472 79.4985 15.0531C79.4985 13.7591 80.5439 12.7136 81.838 12.7136ZM78.8258 8.07103C78.8258 8.79483 78.241 9.38704 77.5172 9.38704C76.7934 9.38704 76.2012 8.80214 76.2012 8.07103C76.2012 7.34724 76.7934 6.76237 77.5172 6.76237C78.2336 6.76237 78.8258 7.34724 78.8258 8.07103Z" fill="#8F1816"/>
<path d="M103.45 52.7708C103.033 52.5515 102.74 52.1275 102.74 51.623C102.74 51.1185 103.033 50.6945 103.45 50.4751V44.9407C101.724 46.8781 100.664 49.4297 100.664 52.2371C100.664 55.0373 101.717 57.5888 103.45 59.5336V52.7708Z" fill="#8F1816"/>
<path d="M92.695 39.0994L85.4936 46.3008C88.9152 45.2261 91.6203 42.5283 92.695 39.0994Z" fill="#8F1816"/>
<path d="M83.5781 40.2614C83.5781 38.5872 84.938 37.2273 86.6122 37.2273C87.2117 37.2273 87.7673 37.4101 88.2353 37.7099L92.8412 33.1039C91.9639 29.6457 89.4489 26.8383 86.1662 25.5662H78.2264C74.1249 27.16 71.2004 31.1445 71.2004 35.809C71.2004 40.9487 74.7317 45.2476 79.4912 46.4539L84.0606 41.8845C83.7609 41.4166 83.5781 40.8609 83.5781 40.2614ZM87.5992 30.2306C88.9152 30.2306 89.9826 31.298 89.9826 32.6213C89.9826 33.9373 88.9152 35.0121 87.5992 35.0121C86.2832 35.0121 85.2158 33.9447 85.2158 32.6213C85.2158 31.298 86.2832 30.2306 87.5992 30.2306ZM79.9591 27.3939C81.1654 27.3939 82.1451 28.3736 82.1451 29.5799C82.1451 30.7936 81.1654 31.7733 79.9591 31.7733C78.7528 31.7733 77.7658 30.7936 77.7658 29.5799C77.7731 28.3736 78.7528 27.3939 79.9591 27.3939ZM74.5928 36.5108C73.869 36.5108 73.2768 35.9186 73.2768 35.1948C73.2768 34.471 73.8617 33.8789 74.5928 33.8789C75.3166 33.8789 75.9015 34.471 75.9015 35.1948C75.9015 35.9259 75.3166 36.5108 74.5928 36.5108ZM78.9136 44.5165C77.6196 44.5165 76.5741 43.471 76.5741 42.1842C76.5741 40.8902 77.6196 39.8447 78.9136 39.8447C80.2077 39.8447 81.2532 40.8902 81.2532 42.1842C81.2532 43.471 80.2077 44.5165 78.9136 44.5165ZM80.6537 38.1631C79.557 38.1631 78.6651 37.2712 78.6651 36.1745C78.6651 35.0779 79.557 34.1859 80.6537 34.1859C81.7576 34.1859 82.6423 35.0779 82.6423 36.1745C82.6423 37.2712 81.7576 38.1631 80.6537 38.1631Z" fill="#8F1816"/>
<path d="M58.9982 13.5911C65.0737 13.5911 69.9941 8.67074 69.9941 2.59523C69.9941 -3.48027 65.0664 -8.40063 58.9982 -8.40063C52.9227 -8.40063 48.0024 -3.47296 48.0024 2.59523C48.0024 8.66343 52.9227 13.5911 58.9982 13.5911ZM64.4011 -2.99044C65.7171 -2.99044 66.7845 -1.92301 66.7845 -0.599703C66.7845 0.716291 65.7171 1.79101 64.4011 1.79101C63.0851 1.79101 62.0104 0.723602 62.0104 -0.599703C62.0104 -1.9157 63.0778 -2.99044 64.4011 -2.99044ZM63.4068 4.01359C65.0811 4.01359 66.4409 5.37344 66.4409 7.04768C66.4409 8.72192 65.0811 10.0818 63.4068 10.0818C61.7326 10.0818 60.3727 8.72192 60.3727 7.04768C60.38 5.37344 61.7326 4.01359 63.4068 4.01359ZM59.4442 2.95347C59.4442 4.05013 58.5523 4.94209 57.4556 4.94209C56.3589 4.94209 55.467 4.05013 55.467 2.95347C55.467 1.85681 56.3589 0.964856 57.4556 0.964856C58.5523 0.972167 59.4442 1.85681 59.4442 2.95347ZM56.7611 -5.81982C57.9674 -5.81982 58.9544 -4.84012 58.9544 -3.6338C58.9544 -2.42747 57.9747 -1.44779 56.7611 -1.44779C55.5547 -1.44779 54.575 -2.42747 54.575 -3.6338C54.5677 -4.84012 55.5474 -5.81982 56.7611 -5.81982ZM55.7083 6.62365C57.0023 6.62365 58.0478 7.66912 58.0478 8.96318C58.0478 10.2499 57.0023 11.3027 55.7083 11.3027C54.4215 11.3027 53.3687 10.2572 53.3687 8.96318C53.376 7.67643 54.4215 6.62365 55.7083 6.62365ZM50.0714 1.98843C50.0714 1.26463 50.6636 0.672418 51.3874 0.672418C52.1112 0.672418 52.7034 1.25732 52.7034 1.98843C52.7034 2.71953 52.1112 3.30441 51.3874 3.30441C50.6636 3.2971 50.0714 2.71222 50.0714 1.98843Z" fill="#8F1816"/>
<path d="M122.656 52.23C122.656 46.1545 117.736 41.2341 111.66 41.2341C110.22 41.2341 108.845 41.5193 107.58 42.0237V44.8897C107.968 44.2609 108.633 43.8149 109.423 43.8149C110.629 43.8149 111.616 44.7946 111.616 46.0009C111.616 47.2073 110.636 48.1943 109.423 48.1943C108.633 48.1943 107.968 47.7483 107.58 47.1195V56.4266C107.829 56.3315 108.092 56.2657 108.377 56.2657C109.671 56.2657 110.717 57.3112 110.717 58.5979C110.717 59.892 109.671 60.9375 108.377 60.9375C108.092 60.9375 107.829 60.8717 107.58 60.7766V62.4363C108.838 62.9407 110.22 63.2258 111.66 63.2258C117.736 63.2258 122.656 58.2982 122.656 52.23ZM117.063 46.6443C118.379 46.6443 119.446 47.7117 119.446 49.035C119.446 50.351 118.379 51.4258 117.063 51.4258C115.747 51.4258 114.679 50.3583 114.679 49.035C114.679 47.7117 115.747 46.6443 117.063 46.6443ZM110.117 54.5841C109.021 54.5841 108.129 53.6922 108.129 52.5956C108.129 51.4989 109.021 50.6069 110.117 50.6069C111.221 50.6069 112.106 51.4989 112.106 52.5956C112.106 53.6922 111.221 54.5841 110.117 54.5841ZM116.076 59.7165C114.402 59.7165 113.042 58.3567 113.042 56.6824C113.042 55.0082 114.402 53.6483 116.076 53.6483C117.75 53.6483 119.11 55.0082 119.11 56.6824C119.11 58.3567 117.75 59.7165 116.076 59.7165Z" fill="#8F1816"/>
<path d="M103.45 3.99151V-14.8638C100.24 -12.941 98.0906 -9.44626 98.0906 -5.43248C98.0906 -1.43332 100.247 2.0687 103.45 3.99151ZM100.16 -6.04661C100.16 -6.77041 100.752 -7.36259 101.476 -7.36259C102.199 -7.36259 102.792 -6.77041 102.792 -6.04661C102.792 -5.32281 102.199 -4.7306 101.476 -4.7306C100.752 -4.7306 100.16 -5.32281 100.16 -6.04661Z" fill="#8F1816"/>
<path d="M55.4597 49.3057C61.5352 49.3057 66.4555 44.3853 66.4555 38.3098C66.4555 32.2343 61.5279 27.314 55.4597 27.314C49.3842 27.314 44.4638 32.2416 44.4638 38.3098C44.4638 44.3853 49.3915 49.3057 55.4597 49.3057ZM60.8626 32.7315C62.1785 32.7315 63.2533 33.7989 63.2533 35.1222C63.2533 36.4382 62.1785 37.5129 60.8626 37.5129C59.5466 37.5129 58.4718 36.4455 58.4718 35.1222C58.4791 33.7989 59.5466 32.7315 60.8626 32.7315ZM59.8756 39.7355C61.5498 39.7355 62.9097 41.0954 62.9097 42.7696C62.9097 44.4438 61.5498 45.8037 59.8756 45.8037C58.2013 45.8037 56.8415 44.4438 56.8415 42.7696C56.8415 41.088 58.2013 39.7355 59.8756 39.7355ZM55.9056 38.6754C55.9056 39.7721 55.0137 40.664 53.917 40.664C52.8204 40.664 51.9284 39.7721 51.9284 38.6754C51.9284 37.5787 52.8204 36.6868 53.917 36.6868C55.0137 36.6868 55.9056 37.5787 55.9056 38.6754ZM53.2225 29.8948C54.4288 29.8948 55.4158 30.8745 55.4158 32.0808C55.4158 33.2871 54.4361 34.2668 53.2225 34.2668C52.0161 34.2668 51.0365 33.2871 51.0365 32.0808C51.0365 30.8745 52.0161 29.8948 53.2225 29.8948ZM52.177 42.3455C53.4711 42.3455 54.5165 43.391 54.5165 44.6851C54.5165 45.9718 53.4711 47.0246 52.177 47.0246C50.8902 47.0246 49.8374 45.9792 49.8374 44.6851C49.8374 43.391 50.8902 42.3455 52.177 42.3455ZM46.5402 37.703C46.5402 36.9792 47.1323 36.387 47.8561 36.387C48.5799 36.387 49.1721 36.9719 49.1721 37.703C49.1721 38.4341 48.5799 39.019 47.8561 39.019C47.125 39.019 46.5402 38.4268 46.5402 37.703Z" fill="#8F1816"/>
</g>
</svg>
