<svg width="95" height="43" viewBox="0 0 95 43" fill="none" xmlns="http://www.w3.org/2000/svg">
<g style="mix-blend-mode:multiply" opacity="0.16">
<path d="M75.5694 54.5899C79.4847 39.0876 70.0932 23.3476 54.5928 19.4308C39.0906 15.5155 23.3505 24.907 19.4338 40.4074C15.5185 55.9097 24.91 71.6497 40.4118 75.5683C55.9094 79.4813 71.6527 70.0903 75.5694 54.5899Z" fill="white"/>
<path d="M80.3532 55.7991C84.9366 37.6554 73.9438 19.232 55.8005 14.6453C37.6569 10.0619 19.2316 21.0561 14.6482 39.1998C10.0629 57.3449 21.0557 75.7683 39.2008 80.3536C57.3464 84.9356 75.7698 73.9428 80.3532 55.7991ZM40.6449 74.6396C25.6567 70.8517 16.5742 55.6321 20.3607 40.642C24.1487 25.6538 39.3682 16.5713 54.3565 20.3593C69.3466 24.1458 78.4272 39.3668 74.6392 54.355C70.8527 69.3451 55.6317 78.4257 40.6449 74.6396Z" fill="#8F1816"/>
<path d="M32.4911 26.7975C37.5046 23.1674 43.7973 21.3734 50.25 22.0786L47.0687 45.8745L32.4911 26.7975ZM45.8759 47.9297L22.08 44.7484C21.3748 51.2012 23.1688 57.4938 26.7989 62.5074L45.8759 47.9297ZM31.4671 27.577C27.2857 30.9348 24.1229 35.6333 22.7074 41.2338C22.5187 41.9809 22.3704 42.7267 22.2522 43.4731L46.0466 46.6525L31.469 27.5756L31.4671 27.577ZM47.9311 49.1225L44.7499 72.9184C51.1993 73.6232 57.4952 71.8296 62.5074 68.1976L47.9311 49.1225ZM48.3426 46.0448L67.4214 31.4657C64.0617 27.2857 59.367 24.12 53.7646 22.7059C53.0175 22.5173 52.2717 22.369 51.5253 22.2508L48.3426 46.0448ZM68.2009 32.4896L49.1258 47.0659L72.9217 50.2471C73.6264 43.7977 71.8311 37.5032 68.2009 32.4896ZM46.6554 48.9537L27.5784 63.5313C30.9395 67.7132 35.6361 70.8774 41.2367 72.2929C41.9837 72.4816 42.7281 72.628 43.476 72.7481L46.6554 48.9537ZM72.7495 51.5225L48.9536 48.3412L63.5327 67.42C67.7127 64.0603 70.877 59.3637 72.2925 53.7632C72.483 53.0147 72.6294 52.2703 72.7495 51.5225Z" fill="#B44418"/>
<path d="M68.3369 50.9341L48.5678 48.1337L60.831 63.8841C64.2418 61.1151 66.8209 57.2617 67.9806 52.6723C68.1252 52.0919 68.2412 51.5127 68.3369 50.9341Z" fill="#FBB040"/>
<path d="M64.6633 35.193L48.7312 47.1991L68.5109 49.6575C69.0569 44.4081 67.5967 39.2909 64.6633 35.193Z" fill="#FBB040"/>
<path d="M47.1918 46.3331L49.659 26.4875C44.4078 25.943 39.2925 27.4018 35.1946 30.3352L47.1918 46.3331Z" fill="#FBB040"/>
<path d="M34.1692 31.1129C30.7599 33.8837 28.1807 37.7371 27.0215 42.3232C26.8755 42.9017 26.7609 43.4828 26.6633 44.0628L46.3679 46.8446L34.1692 31.1129Z" fill="#FBB040"/>
<path d="M52.6754 27.0201C52.0954 26.8722 51.5157 26.7595 50.9357 26.6618L48.1751 46.3592L63.8857 34.1678C61.1149 30.7584 57.2614 28.1793 52.6754 27.0201Z" fill="#FBB040"/>
<path d="M46.2252 47.849L26.4911 45.338C25.9451 50.5874 27.4049 55.7079 30.3387 59.8025L46.2252 47.849Z" fill="#FBB040"/>
<path d="M60.8546 44.8476C62.038 46.3963 64.2548 46.6944 65.8054 45.5095C67.3541 44.3261 67.6521 42.1093 66.4672 40.5587C65.2824 39.0082 63.067 38.712 61.5165 39.8969C59.9659 41.0817 59.6697 43.2971 60.8546 44.8476ZM66.1369 42.9923C66.3935 43.3282 66.3307 43.8106 65.993 44.0687C65.6571 44.3254 65.1732 44.2607 64.9166 43.9248C64.6599 43.589 64.7227 43.1065 65.0605 42.8484C65.3996 42.5922 65.8802 42.6565 66.1369 42.9923ZM64.1587 44.1049C64.4852 44.5322 64.4034 45.1445 63.9761 45.471C63.5488 45.7975 62.9365 45.7157 62.61 45.2884C62.2835 44.8611 62.3653 44.2488 62.7926 43.9223C63.2199 43.5958 63.8322 43.6777 64.1587 44.1049ZM63.6546 42.8883C63.3728 43.1036 62.9731 43.0485 62.7592 42.7686C62.5454 42.4887 62.5991 42.0871 62.8789 41.8733C63.1588 41.6594 63.5604 41.7131 63.7743 41.993C63.9882 42.2728 63.9363 42.673 63.6546 42.8883ZM65.3708 40.4892C65.6061 40.7971 65.5486 41.2401 65.2407 41.4753C64.9309 41.712 64.4899 41.653 64.2532 41.3433C64.0179 41.0354 64.0769 40.5943 64.3866 40.3577C64.6945 40.1224 65.1356 40.1814 65.3708 40.4892ZM61.9893 42.6506C62.2417 42.9809 62.1788 43.4516 61.8485 43.704C61.5201 43.9549 61.0494 43.892 60.797 43.5617C60.5461 43.2333 60.6076 42.7607 60.936 42.5098C61.2662 42.2574 61.7384 42.3222 61.9893 42.6506ZM62.0749 40.3066C62.2596 40.1654 62.5262 40.2011 62.6674 40.3858C62.8085 40.5705 62.7729 40.8372 62.5882 40.9783C62.4034 41.1195 62.1368 41.0838 61.9956 40.8991C61.8563 40.713 61.8901 40.4477 62.0749 40.3066Z" fill="#8F1816"/>
<path d="M57.4019 40.7742C57.4875 41.0487 57.4076 41.358 57.165 41.5433C56.9225 41.7287 56.6031 41.7245 56.3607 41.5698L55.7058 42.0703C55.9112 42.3507 55.857 42.7439 55.5808 42.9549C55.3047 43.1659 54.9111 43.115 54.6945 42.8431L54.0395 43.3436C54.0011 43.506 53.9184 43.6607 53.7766 43.7691C53.6329 43.8789 53.4637 43.9166 53.295 43.9125L52.5151 44.5085C52.5938 44.6463 52.681 44.7836 52.7808 44.9142C53.9643 46.4629 56.181 46.761 57.7316 45.5761C59.2821 44.3912 59.5769 42.174 58.3935 40.6253C58.2936 40.4947 58.1855 40.3764 58.0699 40.2638L57.4019 40.7742ZM58.0626 43.0622C58.3193 43.3981 58.2565 43.8805 57.9187 44.1386C57.5829 44.3952 57.099 44.3306 56.8423 43.9947C56.5843 43.657 56.6485 43.1764 56.9862 42.9183C57.324 42.6602 57.8046 42.7245 58.0626 43.0622ZM56.0831 44.173C56.4096 44.6002 56.3277 45.2125 55.9004 45.539C55.4731 45.8655 54.8609 45.7837 54.5344 45.3564C54.2079 44.9291 54.2897 44.3168 54.717 43.9903C55.1443 43.6638 55.7565 43.7457 56.0831 44.173Z" fill="#8F1816"/>
<path d="M50.1128 37.2649C49.9873 37.1007 49.8493 36.955 49.7034 36.8182L49.354 39.4318C49.5178 39.4721 49.6726 39.5548 49.7838 39.7004C50.0405 40.0362 49.9762 40.5168 49.6404 40.7735C49.4948 40.8847 49.3237 40.9238 49.1551 40.9197L48.9386 42.5392C49.1153 42.4456 49.2881 42.343 49.4523 42.2176C51.0015 41.0308 51.2976 38.8155 50.1128 37.2649Z" fill="#8F1816"/>
<path d="M45.1639 36.6017C43.6133 37.7866 43.3172 40.0019 44.502 41.5525C45.2492 42.5302 46.4065 43.0082 47.5495 42.9299L47.6538 42.1497C47.6426 42.1583 47.6361 42.1691 47.6249 42.1777C47.1976 42.5042 46.5854 42.4224 46.2589 41.9951C45.9323 41.5678 46.0142 40.9555 46.4415 40.629C46.8688 40.3025 47.481 40.3843 47.8075 40.8116C47.8161 40.8228 47.8195 40.835 47.8281 40.8462L48.1763 38.2542C48.0735 38.2086 47.978 38.1456 47.9039 38.0486C47.6686 37.7407 47.7262 37.2977 48.034 37.0625C48.1292 36.9898 48.2411 36.9545 48.3504 36.9389L48.4662 36.0732C47.3835 35.7006 46.1398 35.856 45.1639 36.6017ZM47.4217 38.6978C47.637 38.9795 47.5819 39.3793 47.302 39.5931C47.0221 39.807 46.6205 39.7533 46.4067 39.4734C46.1928 39.1935 46.2465 38.792 46.5264 38.5781C46.8062 38.3642 47.2078 38.4179 47.4217 38.6978ZM45.6382 39.3573C45.8905 39.6875 45.8262 40.1564 45.4959 40.4088C45.1675 40.6597 44.6949 40.5982 44.444 40.2698C44.1916 39.9395 44.2545 39.4688 44.5848 39.2165C44.9151 38.9641 45.3858 39.027 45.6382 39.3573ZM46.2356 37.6831C46.0508 37.8243 45.7856 37.7905 45.6445 37.6058C45.5033 37.4211 45.5371 37.1559 45.7237 37.0133C45.9084 36.8721 46.1732 36.9092 46.3143 37.0939C46.4541 37.2768 46.4203 37.542 46.2356 37.6831Z" fill="#8F1816"/>
<path d="M38.9469 45.1738C39.3742 44.8473 39.9864 44.9291 40.313 45.3564C40.4299 45.5094 40.4916 45.6869 40.5063 45.8648L42.5801 46.142C43.2916 45.2437 43.5176 44.0543 43.2021 42.9684L41.6536 40.9421C40.447 40.2061 38.8597 40.2368 37.6693 41.1465C36.3576 42.1489 35.9491 43.8885 36.5694 45.3384L38.6268 45.6135C38.6877 45.4457 38.7939 45.2907 38.9469 45.1738ZM42.2911 44.2438C42.5478 44.5797 42.4835 45.0603 42.1458 45.3183C41.8099 45.575 41.3275 45.5122 41.0708 45.1763C40.8142 44.8404 40.8784 44.3598 41.2161 44.1018C41.5539 43.8437 42.0345 43.9079 42.2911 44.2438ZM41.5251 41.7407C41.7603 42.0486 41.7014 42.4897 41.3935 42.725C41.0838 42.9616 40.6427 42.9027 40.4074 42.5948C40.1722 42.2869 40.2297 41.844 40.5394 41.6073C40.8487 41.3739 41.2898 41.4329 41.5251 41.7407ZM38.1518 42.1492C38.0106 41.9644 38.0462 41.6978 38.231 41.5567C38.4157 41.4155 38.6809 41.4493 38.8235 41.6359C38.9646 41.8206 38.9276 42.0854 38.7428 42.2265C38.5563 42.3691 38.2929 42.3339 38.1518 42.1492ZM36.9513 44.8132C36.6989 44.4829 36.7618 44.0122 37.0902 43.7613C37.4205 43.5089 37.8912 43.5718 38.1436 43.9021C38.3959 44.2324 38.333 44.7031 38.0027 44.9554C37.6743 45.2064 37.2036 45.1435 36.9513 44.8132ZM38.9121 44.0182C38.6982 43.7383 38.7519 43.3368 39.0318 43.1229C39.3117 42.909 39.7132 42.9627 39.9271 43.2426C40.1424 43.5243 40.0873 43.9241 39.8074 44.1379C39.5275 44.3518 39.1274 44.3 38.9121 44.0182Z" fill="#8F1816"/>
<path d="M40.96 33.6992C42.1448 35.2498 44.3601 35.5459 45.9107 34.3611C47.4613 33.1762 47.756 30.959 46.5726 29.4103C45.3877 27.8598 43.1705 27.565 41.6218 28.7484C40.0731 29.9319 39.7751 32.1486 40.96 33.6992ZM46.2455 31.8443C46.5021 32.1802 46.4379 32.6608 46.1002 32.9189C45.7643 33.1755 45.2818 33.1127 45.0252 32.7768C44.7685 32.441 44.8314 31.9585 45.1691 31.7004C45.505 31.4438 45.9874 31.5066 46.2455 31.8443ZM44.2641 32.9565C44.5906 33.3838 44.5087 33.9961 44.0814 34.3226C43.6541 34.6491 43.0419 34.5672 42.7154 34.1399C42.3888 33.7126 42.4707 33.1004 42.898 32.7739C43.3267 32.4492 43.9375 32.5292 44.2641 32.9565ZM43.7618 31.7384C43.4819 31.9523 43.0803 31.8986 42.8665 31.6187C42.6526 31.3389 42.7063 30.9373 42.9862 30.7234C43.266 30.5095 43.6676 30.5632 43.8815 30.8431C44.0935 31.1244 44.0417 31.5246 43.7618 31.7384ZM45.4776 29.3427C45.7129 29.6505 45.6553 30.0935 45.3474 30.3288C45.0396 30.564 44.5985 30.505 44.3618 30.1953C44.1265 29.8874 44.1855 29.4463 44.4934 29.2111C44.7998 28.974 45.2409 29.0329 45.4776 29.3427ZM42.0965 31.5007C42.3489 31.831 42.286 32.3017 41.9557 32.5541C41.6273 32.805 41.1547 32.7435 40.9024 32.4133C40.6514 32.0849 40.7129 31.6123 41.0432 31.3599C41.373 31.1108 41.8456 31.1723 42.0965 31.5007ZM42.1802 29.1582C42.3649 29.017 42.6316 29.0526 42.7727 29.2374C42.9139 29.4221 42.8801 29.6873 42.6935 29.8299C42.5069 29.9725 42.2421 29.9354 42.101 29.7507C41.9617 29.5645 41.9955 29.2993 42.1802 29.1582Z" fill="#8F1816"/>
<path d="M53.533 34.6513C54.7179 36.2019 56.9351 36.4967 58.4838 35.3132C60.0325 34.1298 60.3305 31.913 59.1456 30.3625C57.9622 28.8138 55.7436 28.5172 54.1949 29.7006C52.6443 30.8855 52.3496 33.1027 53.533 34.6513ZM58.8167 32.7979C59.0733 33.1338 59.0091 33.6143 58.6714 33.8724C58.3355 34.1291 57.853 34.0662 57.5964 33.7304C57.3397 33.3945 57.4026 32.9121 57.7403 32.654C58.078 32.3959 58.56 32.462 58.8167 32.7979ZM56.8367 33.9119C57.1632 34.3392 57.0813 34.9515 56.654 35.278C56.2268 35.6045 55.6145 35.5227 55.288 35.0954C54.9615 34.6681 55.0433 34.0558 55.4706 33.7293C55.8983 33.3995 56.5087 33.4828 56.8367 33.9119ZM56.333 32.692C56.0531 32.9059 55.6515 32.8522 55.4377 32.5723C55.2238 32.2924 55.2775 31.8908 55.5574 31.677C55.8372 31.4631 56.2388 31.5168 56.4527 31.7967C56.668 32.0784 56.6129 32.4781 56.333 32.692ZM58.0507 30.2948C58.2859 30.6027 58.2284 31.0456 57.9205 31.2809C57.6108 31.5176 57.1697 31.4586 56.933 31.1489C56.6977 30.841 56.7553 30.3981 57.065 30.1614C57.3729 29.9261 57.8154 29.9869 58.0507 30.2948ZM54.6692 32.4562C54.9215 32.7864 54.8572 33.2553 54.5269 33.5077C54.1966 33.76 53.7259 33.6971 53.475 33.3687C53.2226 33.0384 53.2855 32.5677 53.6158 32.3154C53.9461 32.063 54.4168 32.1259 54.6692 32.4562ZM54.7547 30.1122C54.9394 29.971 55.206 30.0067 55.3472 30.1914C55.4884 30.3761 55.4513 30.6409 55.2666 30.782C55.0818 30.9232 54.8166 30.8894 54.6755 30.7047C54.5329 30.5181 54.57 30.2533 54.7547 30.1122Z" fill="#8F1816"/>
<path d="M52.0789 43.1719L56.8911 39.4947C55.7744 39.0505 54.4633 39.1835 53.4389 39.9663C52.4183 40.7462 51.9451 41.9796 52.0789 43.1719ZM53.9992 40.3745C54.1839 40.2334 54.4505 40.269 54.5917 40.4538C54.7328 40.6385 54.6972 40.9051 54.5125 41.0463C54.3278 41.1874 54.0611 41.1518 53.92 40.9671C53.7788 40.7823 53.8145 40.5157 53.9992 40.3745Z" fill="#8F1816"/>
<path d="M31.1549 39.7615C32.3398 41.312 34.5551 41.6082 36.1057 40.4233C37.6562 39.2385 37.951 37.0213 36.7675 35.4726C35.5827 33.922 33.3655 33.6273 31.8168 34.8107C30.2662 35.9956 29.9715 38.2128 31.1549 39.7615ZM36.4386 37.908C36.6953 38.2439 36.6324 38.7263 36.2947 38.9844C35.9588 39.241 35.475 39.1764 35.2183 38.8405C34.9617 38.5046 35.0245 38.0222 35.3622 37.7641C35.7014 37.5079 36.182 37.5721 36.4386 37.908ZM34.4586 39.022C34.7851 39.4493 34.7032 40.0616 34.276 40.3881C33.8487 40.7146 33.2364 40.6328 32.9099 40.2055C32.5834 39.7782 32.6652 39.1659 33.0925 38.8394C33.5217 38.5115 34.1321 38.5948 34.4586 39.022ZM33.9549 37.8021C33.675 38.016 33.2734 37.9623 33.0596 37.6824C32.8457 37.4025 32.8994 37.0009 33.1793 36.7871C33.4592 36.5732 33.8607 36.6269 34.0746 36.9068C34.2885 37.1867 34.2348 37.5882 33.9549 37.8021ZM35.6726 35.4049C35.9078 35.7128 35.8503 36.1557 35.5424 36.391C35.2346 36.6263 34.7935 36.5673 34.5568 36.2576C34.3215 35.9497 34.3805 35.5086 34.6884 35.2733C34.9962 35.0381 35.4373 35.097 35.6726 35.4049ZM32.2911 37.5663C32.5434 37.8965 32.4805 38.3673 32.1502 38.6196C31.8218 38.8706 31.3493 38.8091 31.0969 38.4788C30.846 38.1504 30.9075 37.6778 31.2377 37.4255C31.568 37.1731 32.0401 37.2379 32.2911 37.5663ZM32.3766 35.2223C32.5613 35.0811 32.828 35.1168 32.9691 35.3015C33.1103 35.4862 33.0765 35.7514 32.8899 35.894C32.7033 36.0366 32.4385 35.9995 32.2974 35.8148C32.1548 35.6282 32.1919 35.3634 32.3766 35.2223Z" fill="#8F1816"/>
</g>
</svg>
