<svg width="192" height="104" viewBox="0 0 192 104" fill="none" xmlns="http://www.w3.org/2000/svg">
<g style="mix-blend-mode:multiply" opacity="0.16">
<path d="M152.73 110.329C160.643 78.9984 141.662 47.187 110.335 39.2711C79.0041 31.3581 47.1927 50.3387 39.2768 81.6659C31.3637 112.997 50.3444 144.808 81.6744 152.728C112.996 160.636 144.814 141.656 152.73 110.329Z" fill="white"/>
<path d="M162.398 112.773C171.661 76.1036 149.444 38.8688 112.776 29.5989C76.1065 20.3357 38.868 42.5556 29.6047 79.2249C20.3377 115.897 42.5547 153.132 79.2269 162.399C115.9 171.659 153.135 149.442 162.398 112.773ZM82.1454 150.851C51.8534 143.195 33.4973 112.435 41.1501 82.1396C48.8057 51.8476 79.5653 33.4915 109.857 41.1472C140.153 48.7999 158.505 79.5623 150.85 109.854C143.197 140.15 112.435 158.502 82.1454 150.851Z" fill="#8F1816"/>
<path d="M65.6661 54.1592C75.7989 46.8225 88.5166 43.1968 101.558 44.622L95.1283 92.7147L65.6661 54.1592ZM92.7176 96.8685L44.6249 90.439C43.1997 103.48 46.8253 116.198 54.1621 126.331L92.7176 96.8685ZM63.5967 55.7346C55.1458 62.5209 48.7536 72.0168 45.8928 83.3357C45.5115 84.8456 45.2118 86.3529 44.9729 87.8615L93.0627 94.2872L63.6005 55.7318L63.5967 55.7346ZM96.8714 99.2793L90.4418 147.372C103.476 148.796 116.201 145.172 126.331 137.831L96.8714 99.2793ZM97.7029 93.0589L136.262 63.5939C129.472 55.1459 119.984 48.7478 108.661 45.8899C107.151 45.5086 105.644 45.2089 104.135 44.97L97.7029 93.0589ZM137.838 65.6633L99.2859 95.1226L147.379 101.552C148.803 88.5175 145.174 75.796 137.838 65.6633ZM94.293 98.9379L55.7375 128.4C62.5304 136.852 72.0225 143.247 83.3415 146.108C84.8514 146.489 86.3557 146.785 87.8672 147.028L94.293 98.9379ZM147.031 104.13L98.9379 97.7001L128.403 136.259C136.851 129.469 143.246 119.977 146.107 108.658C146.492 107.145 146.788 105.641 147.031 104.13Z" fill="#B44418"/>
<path d="M96.6082 98.4651L91.6369 138.461C102.246 139.564 112.588 136.613 120.87 130.685L96.6082 98.4651Z" fill="#FBB040"/>
<path d="M138.113 102.941L98.158 97.281L122.943 129.113C129.836 123.517 135.049 115.729 137.392 106.454C137.685 105.281 137.919 104.11 138.113 102.941Z" fill="#FBB040"/>
<path d="M85.5472 137.386C86.7165 137.681 87.8909 137.913 89.0602 138.106L94.657 98.3196L62.884 122.939C68.4839 129.83 76.2748 135.046 85.5472 137.386Z" fill="#FBB040"/>
<path d="M130.688 71.1268L98.4884 95.3916L138.464 100.36C139.568 89.7509 136.616 79.4089 130.688 71.1268Z" fill="#FBB040"/>
<path d="M95.3772 93.6419L100.363 53.533C89.7505 52.4324 79.4121 55.3808 71.1301 61.3093L95.3772 93.6419Z" fill="#FBB040"/>
<path d="M69.0579 62.8807C62.1673 68.4806 56.9548 76.2686 54.6119 85.5372C54.3167 86.7065 54.0853 87.8809 53.8879 89.0531L93.712 94.6752L69.0579 62.8807Z" fill="#FBB040"/>
<path d="M106.46 54.6087C105.288 54.3098 104.116 54.0821 102.944 53.8847L97.3643 93.6942L129.116 69.0547C123.516 62.1641 115.728 56.9516 106.46 54.6087Z" fill="#FBB040"/>
<path d="M93.4236 96.7055L53.5399 91.6307C52.4364 102.24 55.3867 112.589 61.3161 120.864L93.4236 96.7055Z" fill="#FBB040"/>
<path d="M114.002 115.475C117.136 113.08 117.734 108.603 115.34 105.469C112.948 102.339 108.464 101.74 105.334 104.132C105.025 104.368 104.75 104.626 104.489 104.902L107.596 108.968C107.642 108.645 107.809 108.339 108.088 108.126C108.653 107.694 109.465 107.802 109.897 108.368C110.329 108.934 110.221 109.745 109.655 110.177C109.376 110.391 109.037 110.471 108.714 110.431L109.97 112.075C110.234 112.202 110.48 112.39 110.673 112.643C110.866 112.896 110.981 113.178 111.037 113.47L113.039 116.091C113.369 115.905 113.697 115.708 114.002 115.475ZM106.306 106.154C106.021 105.781 106.093 105.242 106.466 104.957C106.84 104.672 107.378 104.744 107.664 105.117C107.949 105.49 107.874 106.025 107.501 106.311C107.124 106.599 106.591 106.528 106.306 106.154ZM110.869 107.052C110.393 106.43 110.51 105.535 111.132 105.059C111.754 104.584 112.645 104.703 113.124 105.329C113.599 105.951 113.483 106.846 112.861 107.322C112.239 107.797 111.347 107.678 110.869 107.052ZM112.213 112.267C111.695 111.588 111.822 110.613 112.504 110.091C113.183 109.572 114.158 109.699 114.68 110.382C115.198 111.061 115.068 112.032 114.386 112.554C113.706 113.079 112.735 112.949 112.213 112.267Z" fill="#8F1816"/>
<path d="M133.63 99.616C131.486 97.7482 128.406 97.3364 125.847 98.5754L133.63 99.616Z" fill="#8F1816"/>
<path d="M122.99 90.6393C125.382 93.7693 129.862 94.3717 132.996 91.977C136.126 89.5852 136.728 85.105 134.334 81.9713C131.939 78.8375 127.462 78.2389 124.328 80.6336C121.194 83.0283 120.596 87.5056 122.99 90.6393ZM133.666 86.8896C134.185 87.5684 134.058 88.5435 133.375 89.0651C132.696 89.5838 131.719 89.453 131.2 88.7742C130.681 88.0955 130.808 87.1204 131.491 86.5988C132.176 86.081 133.147 86.2108 133.666 86.8896ZM129.668 89.1383C130.328 90.0019 130.163 91.2393 129.299 91.8992C128.435 92.5591 127.198 92.3937 126.538 91.5301C125.878 90.6665 126.044 89.4291 126.907 88.7692C127.771 88.1093 129.008 88.2747 129.668 89.1383ZM128.649 86.6794C128.08 87.1145 127.272 87.0032 126.84 86.4375C126.408 85.8718 126.516 85.0602 127.082 84.628C127.647 84.1957 128.459 84.3042 128.891 84.8699C129.323 85.4355 129.219 86.2443 128.649 86.6794ZM132.118 81.8308C132.593 82.453 132.477 83.3482 131.855 83.8237C131.229 84.3021 130.337 84.1829 129.859 83.5569C129.384 82.9347 129.503 82.0432 130.129 81.5648C130.751 81.0894 131.642 81.2085 132.118 81.8308ZM125.284 86.199C125.794 86.8665 125.667 87.8178 124.999 88.3279C124.335 88.835 123.384 88.7079 122.874 88.0404C122.367 87.3767 122.491 86.4215 123.155 85.9144C123.822 85.4043 124.777 85.5353 125.284 86.199ZM125.457 81.4616C125.83 81.1763 126.369 81.2484 126.654 81.6217C126.939 81.9951 126.867 82.5339 126.494 82.8192C126.121 83.1045 125.582 83.0325 125.296 82.6591C125.015 82.2829 125.083 81.7469 125.457 81.4616Z" fill="#8F1816"/>
<path d="M116.012 82.4069C116.185 82.9616 116.024 83.5867 115.534 83.9613C115.043 84.3359 114.398 84.3275 113.908 84.0148L112.584 85.0263C113 85.5931 112.89 86.3876 112.332 86.8141C111.774 87.2406 110.978 87.1376 110.54 86.5882L109.217 87.5996C109.139 87.9278 108.972 88.2407 108.685 88.4597C108.395 88.6816 108.053 88.7577 107.712 88.7494L106.136 89.9539C106.295 90.2325 106.471 90.51 106.673 90.774C109.065 93.904 113.545 94.5063 116.679 92.1117C119.812 89.717 120.408 85.2359 118.016 82.1059C117.815 81.842 117.596 81.6028 117.362 81.3752L116.012 82.4069ZM117.348 87.031C117.866 87.7098 117.739 88.6848 117.057 89.2064C116.378 89.7251 115.4 89.5944 114.881 88.9156C114.36 88.233 114.49 87.2617 115.172 86.7401C115.855 86.2185 116.826 86.3484 117.348 87.031ZM113.347 89.2759C114.007 90.1394 113.841 91.3768 112.978 92.0368C112.114 92.6967 110.877 92.5312 110.217 91.6676C109.557 90.8041 109.722 89.5667 110.586 88.9068C111.45 88.2469 112.687 88.4123 113.347 89.2759Z" fill="#8F1816"/>
<path d="M101.281 75.3149C101.027 74.983 100.748 74.6884 100.453 74.412L99.7471 79.6943C100.078 79.7758 100.391 79.9429 100.616 80.237C101.134 80.9158 101.005 81.8871 100.326 82.4058C100.032 82.6306 99.6859 82.7096 99.345 82.7013L98.9075 85.9745C99.2646 85.7852 99.6139 85.578 99.9458 85.3244C103.077 82.9259 103.675 78.4486 101.281 75.3149Z" fill="#8F1816"/>
<path d="M69.4498 96.2635C67.0551 93.1297 62.5778 92.5312 59.4441 94.9258C56.3103 97.3205 55.7118 101.798 58.1064 104.932C60.5011 108.065 64.9784 108.664 68.1121 106.269C71.2459 103.875 71.8445 99.3973 69.4498 96.2635ZM67.2406 96.1239C67.7161 96.7461 67.5998 97.6414 66.9775 98.1168C66.3516 98.5952 65.4601 98.476 64.9817 97.85C64.5062 97.2278 64.6225 96.3325 65.2485 95.8542C65.8708 95.3787 66.7623 95.4979 67.2406 96.1239ZM60.4163 96.9485C60.131 96.5751 60.1993 96.0391 60.5764 95.751C60.9497 95.4657 61.4886 95.5377 61.7739 95.9111C62.0592 96.2844 61.9842 96.8195 61.6109 97.1048C61.2338 97.393 60.7016 97.3218 60.4163 96.9485ZM57.99 102.333C57.4828 101.669 57.6071 100.714 58.2746 100.204C58.9421 99.6937 59.8934 99.8209 60.4035 100.488C60.9136 101.156 60.7864 102.107 60.1189 102.617C59.4552 103.124 58.5001 103 57.99 102.333ZM61.9596 100.727C61.5273 100.161 61.6358 99.3495 62.2015 98.9173C62.7671 98.485 63.5788 98.5936 64.011 99.1592C64.4433 99.7249 64.3348 100.537 63.7691 100.969C63.1997 101.404 62.3918 101.293 61.9596 100.727ZM61.6542 105.822C60.9943 104.959 61.1597 103.721 62.0233 103.061C62.8869 102.402 64.1243 102.567 64.7842 103.431C65.4441 104.294 65.2786 105.532 64.4151 106.191C63.5515 106.851 62.3141 106.686 61.6542 105.822ZM66.3234 103.061C65.8047 102.382 65.9345 101.411 66.6171 100.889C67.2959 100.37 68.271 100.497 68.7897 101.176C69.3084 101.855 69.1814 102.83 68.4988 103.352C67.8163 103.873 66.845 103.743 66.3234 103.061Z" fill="#8F1816"/>
<path d="M91.2786 73.9742C88.1448 76.3689 87.5463 80.8462 89.9409 83.9799C91.4509 85.956 93.79 86.9222 96.1 86.7637L96.3108 85.187C96.2882 85.2043 96.2751 85.2263 96.2525 85.2436C95.3889 85.9035 94.1515 85.738 93.4916 84.8745C92.8317 84.0109 92.9971 82.7735 93.8607 82.1136C94.7243 81.4537 95.9617 81.6191 96.6216 82.4827C96.6389 82.5053 96.6457 82.5299 96.663 82.5526L97.3668 77.314C97.159 77.2219 96.9661 77.0945 96.8163 76.8984C96.3408 76.2762 96.4571 75.3809 97.0793 74.9055C97.2716 74.7585 97.4979 74.6872 97.7188 74.6557L97.9527 72.9061C95.7645 72.1531 93.2509 72.4671 91.2786 73.9742ZM95.8418 78.2105C96.2769 78.7799 96.1655 79.5878 95.5999 80.02C95.0342 80.4523 94.2226 80.3438 93.7903 79.7781C93.3581 79.2125 93.4666 78.4008 94.0322 77.9686C94.5979 77.5363 95.4095 77.6448 95.8418 78.2105ZM92.2371 79.5434C92.7472 80.2109 92.6171 81.1584 91.9496 81.6685C91.2859 82.1757 90.3308 82.0514 89.8237 81.3876C89.3136 80.7202 89.4408 79.7688 90.1083 79.2588C90.7757 78.7487 91.7271 78.8759 92.2371 79.5434ZM93.4445 76.1598C93.0712 76.4451 92.5352 76.3769 92.2499 76.0035C91.9646 75.6302 92.0329 75.0942 92.41 74.806C92.7833 74.5207 93.3184 74.5957 93.6037 74.969C93.8861 75.3386 93.8179 75.8745 93.4445 76.1598Z" fill="#8F1816"/>
<path d="M80.0938 106.479C80.0426 106.178 80.1461 105.86 80.4063 105.661C80.6665 105.462 81.0005 105.446 81.2779 105.574L84.1326 103.393C82.4532 103.267 80.7192 103.726 79.2711 104.832C77.8268 105.936 76.9257 107.485 76.6055 109.145L80.0938 106.479Z" fill="#8F1816"/>
<path d="M82.9066 95.5431L76.3537 94.6671C78.2566 96.0083 80.7144 96.3403 82.9066 95.5431Z" fill="#8F1816"/>
<path d="M78.7137 91.2989C79.5773 90.639 80.8147 90.8044 81.4746 91.668C81.7109 91.9772 81.8356 92.3359 81.8654 92.6954L86.0567 93.2557C87.4946 91.4401 87.9514 89.0363 87.3137 86.8417L84.1842 82.7463C81.7455 81.2589 78.5376 81.321 76.1316 83.1595C73.4805 85.1853 72.655 88.7012 73.9087 91.6316L78.0667 92.1875C78.1899 91.8485 78.4045 91.5352 78.7137 91.2989ZM85.4725 89.4193C85.9912 90.0981 85.8614 91.0694 85.1788 91.591C84.5 92.1097 83.525 91.9827 83.0063 91.304C82.4876 90.6252 82.6174 89.6539 83.3 89.1323C83.9825 88.6107 84.9538 88.7405 85.4725 89.4193ZM83.9244 84.3605C84.3998 84.9827 84.2807 85.8742 83.6584 86.3497C83.0324 86.828 82.141 86.7088 81.6655 86.0866C81.19 85.4644 81.3063 84.5691 81.9323 84.0908C82.5574 83.6191 83.4489 83.7383 83.9244 84.3605ZM77.1067 85.186C76.8214 84.8126 76.8934 84.2737 77.2668 83.9885C77.6401 83.7032 78.1761 83.7714 78.4643 84.1486C78.7496 84.5219 78.6746 85.057 78.3013 85.3423C77.9242 85.6304 77.392 85.5593 77.1067 85.186ZM74.6804 90.5701C74.1704 89.9026 74.2976 88.9513 74.9613 88.4441C75.6287 87.934 76.5801 88.0612 77.0901 88.7287C77.6002 89.3962 77.473 90.3475 76.8055 90.8576C76.1418 91.3648 75.1905 91.2376 74.6804 90.5701ZM78.6433 88.9634C78.2111 88.3978 78.3196 87.5861 78.8853 87.1539C79.4509 86.7216 80.2625 86.8301 80.6948 87.3958C81.1299 87.9652 81.0185 88.7731 80.4529 89.2054C79.8872 89.6376 79.0785 89.5329 78.6433 88.9634Z" fill="#8F1816"/>
<path d="M82.7822 68.1083C85.1769 71.2421 89.6542 71.8407 92.7879 69.446C95.9217 67.0513 96.5174 62.5702 94.1256 59.4403C91.7309 56.3065 87.2499 55.7108 84.1199 58.1026C80.9899 60.4944 80.3875 64.9746 82.7822 68.1083ZM93.4646 64.3595C93.9833 65.0383 93.8534 66.0096 93.1708 66.5312C92.492 67.0499 91.517 66.9229 90.9983 66.2441C90.4796 65.5653 90.6065 64.5903 91.2891 64.0687C91.9679 63.55 92.943 63.6769 93.4646 64.3595ZM89.4599 66.6073C90.1199 67.4709 89.9544 68.7083 89.0909 69.3682C88.2273 70.0281 86.9899 69.8626 86.33 68.9991C85.6701 68.1355 85.8355 66.8981 86.6991 66.2382C87.5655 65.5821 88.8 65.7437 89.4599 66.6073ZM88.4449 64.1455C87.8792 64.5778 87.0676 64.4693 86.6353 63.9036C86.2031 63.3379 86.3116 62.5263 86.8773 62.0941C87.4429 61.6618 88.2546 61.7703 88.6868 62.336C89.1153 62.9045 89.0106 63.7133 88.4449 64.1455ZM91.9126 59.3035C92.3881 59.9258 92.2718 60.821 91.6496 61.2965C91.0273 61.772 90.1359 61.6528 89.6575 61.0268C89.182 60.4045 89.3012 59.5131 89.9234 59.0376C90.5428 58.5584 91.4343 58.6775 91.9126 59.3035ZM85.0793 63.6651C85.5893 64.3326 85.4622 65.2839 84.7947 65.794C84.131 66.3012 83.1758 66.1769 82.6658 65.5094C82.1586 64.8457 82.2829 63.8905 82.9504 63.3805C83.617 62.8771 84.5721 63.0014 85.0793 63.6651ZM85.2484 58.9306C85.6217 58.6453 86.1606 58.7174 86.4459 59.0907C86.7312 59.4641 86.6629 60 86.2858 60.2882C85.9087 60.5764 85.3736 60.5015 85.0883 60.1281C84.8068 59.7519 84.875 59.2159 85.2484 58.9306Z" fill="#8F1816"/>
<path d="M108.193 70.0324C110.588 73.1662 115.069 73.7618 118.199 71.3701C121.329 68.9783 121.931 64.4981 119.536 61.3643C117.145 58.2343 112.661 57.6349 109.531 60.0267C106.397 62.4213 105.801 66.9024 108.193 70.0324ZM118.872 66.2865C119.39 66.9653 119.26 67.9366 118.578 68.4581C117.899 68.9768 116.924 68.8499 116.405 68.1711C115.887 67.4923 116.014 66.5172 116.696 65.9956C117.379 65.4741 118.353 65.6077 118.872 66.2865ZM114.87 68.538C115.53 69.4016 115.364 70.639 114.501 71.2989C113.637 71.9588 112.4 71.7934 111.74 70.9298C111.08 70.0662 111.245 68.8288 112.109 68.1689C112.973 67.5024 114.207 67.6707 114.87 68.538ZM113.852 66.0725C113.286 66.5047 112.475 66.3962 112.042 65.8306C111.61 65.2649 111.719 64.4533 112.284 64.021C112.85 63.5888 113.662 63.6973 114.094 64.2629C114.529 64.8324 114.418 65.6402 113.852 66.0725ZM117.323 61.2276C117.799 61.8498 117.683 62.7451 117.06 63.2205C116.434 63.6989 115.543 63.5797 115.065 62.9537C114.589 62.3315 114.705 61.4363 115.331 60.9579C115.954 60.4824 116.848 60.6054 117.323 61.2276ZM110.489 65.5958C110.999 66.2633 110.869 67.2109 110.202 67.7209C109.534 68.231 108.583 68.1038 108.076 67.4401C107.566 66.7726 107.693 65.8213 108.36 65.3112C109.028 64.8012 109.979 64.9283 110.489 65.5958ZM110.662 60.8585C111.035 60.5732 111.574 60.6452 111.86 61.0186C112.145 61.3919 112.07 61.927 111.697 62.2123C111.323 62.4976 110.787 62.4293 110.502 62.056C110.214 61.6789 110.289 61.1437 110.662 60.8585Z" fill="#8F1816"/>
<path d="M105.254 87.2527L114.98 79.8208C112.723 78.9232 110.073 79.192 108.003 80.774C105.94 82.3503 104.984 84.8431 105.254 87.2527ZM109.135 81.5991C109.509 81.3139 110.047 81.3859 110.333 81.7592C110.618 82.1326 110.546 82.6715 110.173 82.9567C109.799 83.242 109.26 83.17 108.975 82.7967C108.69 82.4233 108.762 81.8844 109.135 81.5991Z" fill="#8F1816"/>
<path d="M123.273 109.34C125.668 112.474 130.145 113.072 133.279 110.678C135.809 108.744 136.687 105.445 135.663 102.596L132.452 102.17C132.367 102.301 132.269 102.43 132.137 102.531C131.515 103.007 130.619 102.89 130.141 102.264C130.04 102.132 129.982 101.986 129.931 101.833L126.857 101.422C126.829 101.456 126.811 101.494 126.773 101.523C126.4 101.808 125.864 101.74 125.578 101.367C125.55 101.329 125.542 101.287 125.52 101.244L123.092 100.919C121.363 103.393 121.34 106.81 123.273 109.34ZM133.955 105.591C134.474 106.27 134.347 107.245 133.665 107.767C132.986 108.285 132.011 108.158 131.489 107.476C130.971 106.797 131.1 105.826 131.783 105.304C132.465 104.783 133.437 104.912 133.955 105.591ZM129.954 107.843C130.614 108.706 130.448 109.944 129.585 110.604C128.721 111.264 127.484 111.098 126.824 110.235C126.164 109.371 126.329 108.134 127.193 107.474C128.056 106.814 129.294 106.979 129.954 107.843ZM129.174 103.571C129.606 104.136 129.498 104.948 128.932 105.38C128.366 105.812 127.555 105.704 127.123 105.138C126.69 104.573 126.799 103.761 127.364 103.329C127.934 102.894 128.742 103.005 129.174 103.571ZM125.573 104.901C126.083 105.568 125.956 106.519 125.288 107.03C124.625 107.537 123.67 107.412 123.16 106.745C122.652 106.081 122.777 105.126 123.444 104.616C124.108 104.109 125.066 104.237 125.573 104.901Z" fill="#8F1816"/>
<path d="M62.9658 80.36C65.3604 83.4938 69.8377 84.0924 72.9715 81.6977C76.1053 79.303 76.7009 74.822 74.3092 71.692C71.9145 68.5582 67.4334 67.9625 64.3034 70.3543C61.1697 72.749 60.574 77.23 62.9658 80.36ZM73.6443 76.6141C74.163 77.2929 74.0361 78.268 73.3535 78.7896C72.6747 79.3083 71.6968 79.1775 71.1781 78.4987C70.6594 77.8199 70.7863 76.8448 71.4689 76.3233C72.1543 75.8055 73.1256 75.9353 73.6443 76.6141ZM69.6426 78.8656C70.3025 79.7292 70.1371 80.9666 69.2735 81.6265C68.4099 82.2864 67.1725 82.121 66.5126 81.2574C65.8527 80.3939 66.0182 79.1565 66.8817 78.4965C67.7491 77.8338 68.9827 78.0021 69.6426 78.8656ZM68.6247 76.4001C68.059 76.8324 67.2474 76.7239 66.8151 76.1582C66.3829 75.5925 66.4914 74.7809 67.0571 74.3486C67.6227 73.9164 68.4344 74.0249 68.8666 74.5906C69.2989 75.1562 69.1903 75.9679 68.6247 76.4001ZM72.0962 71.5552C72.5717 72.1775 72.4554 73.0727 71.8331 73.5482C71.2109 74.0237 70.3194 73.9045 69.8411 73.2785C69.3656 72.6563 69.4848 71.7648 70.107 71.2893C70.7292 70.8138 71.6207 70.933 72.0962 71.5552ZM65.262 75.9235C65.772 76.5909 65.6448 77.5423 64.9773 78.0523C64.3136 78.5595 63.3585 78.4352 62.8485 77.7677C62.3413 77.104 62.4656 76.1489 63.1331 75.6389C63.8006 75.1288 64.7548 75.2598 65.262 75.9235ZM65.4348 71.1861C65.8082 70.9008 66.347 70.9729 66.6323 71.3462C66.9176 71.7195 66.8493 72.2555 66.4722 72.5437C66.0951 72.8319 65.56 72.7569 65.2747 72.3836C64.9866 72.0065 65.0615 71.4714 65.4348 71.1861Z" fill="#8F1816"/>
</g>
</svg>
