<svg width="159" height="199" viewBox="0 0 159 199" fill="none" xmlns="http://www.w3.org/2000/svg">
<g opacity="0.05">
<path d="M106.236 74.7842C59.4475 15.8371 -26.2598 5.97751 -85.2069 52.755C-144.154 99.5436 -154.014 185.251 -107.236 244.198C-60.4476 303.145 25.2596 313.005 84.2179 266.227C143.143 219.45 153.014 133.731 106.236 74.7842Z" fill="white"/>
<path d="M124.43 60.3486C69.6718 -8.64602 -30.6478 -20.1857 -99.6535 34.5613C-168.648 89.3192 -180.188 189.65 -125.43 258.645C-70.6718 327.65 29.6478 339.19 98.6535 284.432C167.648 229.663 179.188 129.343 124.43 60.3486ZM81.4104 262.701C24.4086 307.931 -58.469 298.403 -103.71 241.401C-148.94 184.4 -139.412 101.522 -82.4104 56.292C-25.4086 11.0509 57.4689 20.5899 102.699 77.5917C147.94 134.593 138.401 217.471 81.4104 262.701Z" fill="#8F1816"/>
<path d="M-120.821 156.468C-120.069 127.343 -108.795 98.6818 -87.716 76.5642L-7.81174 156.468H-120.821ZM-3.53413 166.803L-83.4383 246.707C-61.3207 267.786 -32.6595 279.06 -3.53413 279.812V166.803ZM-120.832 162.526C-120.224 187.76 -111.691 213.017 -94.7901 234.317C-92.5352 237.157 -90.1698 239.843 -87.716 242.419L-7.82279 162.515H-120.832V162.526ZM6.8007 162.526L86.7049 242.43C107.772 220.323 119.058 191.651 119.798 162.526H6.8007ZM-3.53413 152.191V39.1709C-28.7688 39.7899 -54.0255 48.3009 -75.3252 65.2124C-78.1659 67.4673 -80.8519 69.8327 -83.4273 72.2865L-3.53413 152.191ZM2.52309 39.1819V152.18L82.4273 72.2755C60.3207 51.2079 31.6485 39.9336 2.52309 39.1819ZM2.52309 166.814V279.823C27.7688 279.204 53.0256 270.682 74.3252 253.782C77.1659 251.527 79.8408 249.161 82.4273 246.707L2.52309 166.814ZM86.7049 76.5642L6.8007 156.468H119.821C119.202 131.234 110.679 105.977 93.779 84.6773C91.5241 81.8255 89.1587 79.1506 86.7049 76.5642Z" fill="#B44418"/>
<path d="M4.92166 161.861L71.9046 227.617C88.9488 209.545 98.1119 186.234 98.8525 162.524L4.92166 161.861Z" fill="#FBB040"/>
<path d="M71.8935 91.3857L4.92166 157.319L98.8746 156.468C98.2667 135.798 91.2257 115.139 77.3759 97.6861C75.6185 95.4865 73.7836 93.3974 71.8935 91.3857Z" fill="#FBB040"/>
<path d="M61.3045 237.367C63.5041 235.62 65.5931 233.774 67.6048 231.884L1.89304 165.266L2.52308 258.876C23.1927 258.257 43.8624 251.216 61.3045 237.367Z" fill="#FBB040"/>
<path d="M2.52308 60.1382L1.89304 154.036L67.6159 87.0861C49.5438 70.0419 26.2324 60.8788 2.52308 60.1382Z" fill="#FBB040"/>
<path d="M62.7523 184.035C53.5781 184.035 46.1282 191.485 46.1282 200.659C46.1282 200.781 46.1392 200.902 46.1392 201.024L54.4402 209.325C54.8713 207.855 56.1756 206.76 57.7783 206.76C59.7348 206.76 61.3154 208.341 61.3154 210.297C61.3154 211.9 60.2211 213.205 58.751 213.636L62.3875 217.272C62.5091 217.272 62.6307 217.294 62.7523 217.294C71.9376 217.294 79.3764 209.855 79.3764 200.67C79.3764 191.485 71.9376 184.035 62.7523 184.035ZM51.2569 201.731C50.1626 201.731 49.2673 200.836 49.2673 199.742C49.2673 198.647 50.1626 197.763 51.2569 197.763C52.3512 197.763 53.2354 198.647 53.2354 199.742C53.2354 200.836 52.3512 201.731 51.2569 201.731ZM56.054 191.242C56.054 189.407 57.5352 187.937 59.359 187.937C61.1938 187.937 62.6749 189.418 62.6749 191.242C62.6749 193.065 61.1938 194.547 59.359 194.547C57.5462 194.558 56.054 193.076 56.054 191.242ZM60.4201 204.218C58.7621 204.218 57.4136 202.87 57.4136 201.212C57.4136 199.554 58.7621 198.205 60.4201 198.205C62.0781 198.205 63.4266 199.554 63.4266 201.212C63.4376 202.87 62.0891 204.218 60.4201 204.218ZM69.4285 211.989C66.8973 211.989 64.8414 209.933 64.8414 207.402C64.8414 204.87 66.8973 202.814 69.4285 202.814C71.9597 202.814 74.0156 204.87 74.0156 207.402C74.0156 209.933 71.9597 211.989 69.4285 211.989ZM70.9207 199.443C68.9311 199.443 67.3173 197.829 67.3173 195.829C67.3173 193.839 68.9311 192.214 70.9207 192.214C72.9103 192.214 74.5351 193.828 74.5351 195.829C74.5241 197.829 72.9103 199.443 70.9207 199.443Z" fill="#8F1816"/>
<path d="M60.9949 153.727C60.9949 144.542 53.556 137.103 44.3707 137.103C35.1965 137.103 27.7466 144.553 27.7466 153.727C27.7466 154.633 27.835 155.507 27.9787 156.38H39.8941C39.3635 155.838 39.0319 155.098 39.0319 154.28C39.0319 152.622 40.3805 151.273 42.0384 151.273C43.6964 151.273 45.0449 152.622 45.0449 154.28C45.0449 155.098 44.7133 155.838 44.1828 156.38H49.002C49.61 156.07 50.3063 155.882 51.0469 155.882C51.7875 155.882 52.4727 156.07 53.0917 156.38H60.7738C60.8954 155.507 60.9949 154.622 60.9949 153.727ZM32.8642 154.788C31.77 154.788 30.8747 153.893 30.8747 152.798C30.8747 151.704 31.77 150.809 32.8642 150.809C33.9585 150.809 34.8428 151.704 34.8428 152.798C34.8428 153.904 33.9585 154.788 32.8642 154.788ZM40.9773 147.614C39.1535 147.614 37.6614 146.133 37.6614 144.31C37.6614 142.486 39.1425 141.005 40.9773 141.005C42.8011 141.005 44.2933 142.486 44.2933 144.31C44.2933 146.133 42.8122 147.614 40.9773 147.614ZM52.528 152.5C50.5384 152.5 48.9136 150.886 48.9136 148.886C48.9136 146.896 50.5274 145.271 52.528 145.271C54.5176 145.271 56.1314 146.885 56.1314 148.886C56.1424 150.886 54.5287 152.5 52.528 152.5Z" fill="#8F1816"/>
<path d="M51.0359 165.045C49.2895 165.045 47.7862 164.061 47.0125 162.625H42.7791C42.8343 162.868 42.9338 163.1 42.9338 163.354C42.9338 165.31 41.3532 166.891 39.4078 166.891C37.4514 166.891 35.8708 165.31 35.8708 163.354C35.8708 163.1 35.9592 162.868 36.0145 162.625H30.3441C33.2953 167.267 38.4683 170.351 44.3707 170.351C50.2732 170.351 55.4461 167.267 58.3974 162.625H55.0592C54.2855 164.05 52.7823 165.045 51.0359 165.045Z" fill="#8F1816"/>
<path d="M59.4033 94.979C52.915 96.3054 47.7973 101.423 46.4709 107.911L59.4033 94.979Z" fill="#8F1816"/>
<path d="M90.8388 162.614C90.7282 164.172 89.4681 165.421 87.8765 165.421C86.2958 165.421 85.0247 164.183 84.9142 162.614H79.7081C79.4097 162.791 79.0781 162.923 78.7022 162.923C78.3264 162.923 78.0059 162.791 77.7074 162.614H73.6288C74.0267 171.445 81.2887 178.486 90.2197 178.486C99.1397 178.486 106.402 171.445 106.8 162.614H90.8388ZM85.2458 175.027C83.2893 175.027 81.7087 173.446 81.7087 171.49C81.7087 169.533 83.2893 167.952 85.2458 167.952C87.2022 167.952 88.7828 169.533 88.7828 171.49C88.7828 173.446 87.2022 175.027 85.2458 175.027ZM96.8849 173.181C94.3537 173.181 92.2978 171.125 92.2978 168.594C92.2978 166.062 94.3537 164.006 96.8849 164.006C99.4161 164.006 101.472 166.062 101.472 168.594C101.472 171.125 99.4161 173.181 96.8849 173.181Z" fill="#8F1816"/>
<path d="M74.5352 156.369H94.9064C95.2269 154.711 96.6307 153.429 98.3881 153.429C100.146 153.429 101.538 154.711 101.859 156.369H105.893C103.627 149.891 97.4707 145.238 90.2197 145.238C82.9577 145.238 76.8121 149.891 74.5352 156.369ZM86.8264 155.761C85.0026 155.761 83.5104 154.28 83.5104 152.456C83.5104 150.632 84.9916 149.14 86.8264 149.14C88.6502 149.14 90.1313 150.621 90.1313 152.456C90.1313 154.291 88.6502 155.761 86.8264 155.761Z" fill="#8F1816"/>
<path d="M27.7466 101.975C36.9209 101.975 44.3708 94.536 44.3708 85.3507C44.3708 76.1765 36.9319 68.7266 27.7466 68.7266C18.5614 68.7266 11.1225 76.1654 11.1225 85.3507C11.1225 94.536 18.5614 101.975 27.7466 101.975ZM35.904 76.9171C37.8936 76.9171 39.5184 78.5308 39.5184 80.5315C39.5184 82.5211 37.8936 84.1459 35.904 84.1459C33.9144 84.1459 32.2896 82.5321 32.2896 80.5315C32.3006 78.5308 33.9144 76.9171 35.904 76.9171ZM34.4118 87.4951C36.943 87.4951 38.9989 89.551 38.9989 92.0822C38.9989 94.6134 36.943 96.6693 34.4118 96.6693C31.8806 96.6693 29.8247 94.6134 29.8247 92.0822C29.8247 89.551 31.8806 87.4951 34.4118 87.4951ZM28.4209 85.9034C28.4209 87.5724 27.0724 88.9099 25.4144 88.9099C23.7564 88.9099 22.4079 87.5614 22.4079 85.9034C22.4079 84.2454 23.7564 82.8969 25.4144 82.8969C27.0724 82.8969 28.4209 84.2343 28.4209 85.9034ZM24.3533 72.6284C26.1771 72.6284 27.6693 74.1095 27.6693 75.9333C27.6693 77.7681 26.1881 79.2493 24.3533 79.2493C22.5295 79.2493 21.0483 77.7681 21.0483 75.9333C21.0483 74.1095 22.5295 72.6284 24.3533 72.6284ZM22.7727 91.4521C24.7291 91.4521 26.3097 93.0328 26.3097 94.9892C26.3097 96.9346 24.7291 98.5152 22.7727 98.5152C20.8273 98.5152 19.2356 96.9346 19.2356 94.9892C19.2356 93.0328 20.8273 91.4521 22.7727 91.4521ZM14.2506 84.4333C14.2506 83.339 15.1459 82.4437 16.2402 82.4437C17.3344 82.4437 18.2298 83.339 18.2298 84.4333C18.2298 85.5275 17.3344 86.4229 16.2402 86.4229C15.1459 86.4118 14.2506 85.5275 14.2506 84.4333Z" fill="#8F1816"/>
<path d="M2.64465 103.247C3.91578 103.711 4.84425 104.893 4.84425 106.33C4.84425 107.767 3.91578 108.95 2.64465 109.414V113.294C4.28054 113.327 5.59588 114.653 5.59588 116.289C5.59588 117.925 4.28054 119.252 2.64465 119.285V123.165C3.14205 123.772 3.4847 124.524 3.4847 125.364C3.4847 126.215 3.14205 126.956 2.64465 127.575V132.195C3.38522 132.295 4.1479 132.361 4.92163 132.361C14.0959 132.361 21.5458 124.922 21.5458 115.737C21.5458 106.551 14.0959 99.1125 4.92163 99.1125C4.1479 99.1125 3.39628 99.1789 2.64465 99.2894V103.247ZM13.09 107.314C15.0796 107.314 16.7044 108.928 16.7044 110.929C16.7044 112.918 15.0796 114.543 13.09 114.543C11.0894 114.543 9.47558 112.929 9.47558 110.929C9.47558 108.928 11.0894 107.314 13.09 107.314ZM11.5868 117.892C14.118 117.892 16.1739 119.948 16.1739 122.479C16.1739 125.01 14.118 127.066 11.5868 127.066C9.05556 127.066 6.99963 125.01 6.99963 122.479C6.99963 119.948 9.05556 117.892 11.5868 117.892Z" fill="#8F1816"/>
<path d="M25.4365 202.936C25.4365 193.751 17.9977 186.312 8.81237 186.312C6.63488 186.312 4.55687 186.743 2.64465 187.506V191.839C3.23048 190.888 4.23631 190.214 5.43007 190.214C7.25386 190.214 8.74606 191.695 8.74606 193.519C8.74606 195.343 7.26491 196.835 5.43007 196.835C4.23631 196.835 3.23048 196.16 2.64465 195.21V209.281C3.02047 209.137 3.41838 209.038 3.84946 209.038C5.80589 209.038 7.38651 210.618 7.38651 212.564C7.38651 214.52 5.80589 216.101 3.84946 216.101C3.41838 216.101 3.02047 216.001 2.64465 215.857V218.367C4.54582 219.129 6.63488 219.56 8.81237 219.56C17.9977 219.56 25.4365 212.11 25.4365 202.936ZM16.9808 194.491C18.9704 194.491 20.5841 196.105 20.5841 198.106C20.5841 200.095 18.9704 201.72 16.9808 201.72C14.9912 201.72 13.3774 200.106 13.3774 198.106C13.3774 196.105 14.9912 194.491 16.9808 194.491ZM6.48015 206.495C4.82215 206.495 3.47365 205.147 3.47365 203.489C3.47365 201.831 4.82215 200.482 6.48015 200.482C8.14919 200.482 9.48662 201.831 9.48662 203.489C9.48662 205.147 8.14919 206.495 6.48015 206.495ZM15.4886 214.255C12.9574 214.255 10.9015 212.199 10.9015 209.668C10.9015 207.136 12.9574 205.08 15.4886 205.08C18.0198 205.08 20.0757 207.136 20.0757 209.668C20.0757 212.199 18.0198 214.255 15.4886 214.255Z" fill="#8F1816"/>
<path d="M62.7524 127.896C71.9377 127.896 79.3765 120.457 79.3765 111.271C79.3765 103.855 74.5131 97.5654 67.7927 95.4321L62.465 100.771C62.5866 101.114 62.6861 101.478 62.6861 101.865C62.6861 103.689 61.2049 105.181 59.3701 105.181C58.9832 105.181 58.6295 105.082 58.2758 104.96L53.1692 110.067C53.1913 110.166 53.2355 110.255 53.2355 110.365C53.2355 111.459 52.3512 112.355 51.2569 112.355C51.1464 112.355 51.058 112.31 50.9474 112.288L46.913 116.323C49.0463 123.021 55.3356 127.896 62.7524 127.896ZM70.9207 102.827C72.9103 102.827 74.5352 104.441 74.5352 106.441C74.5352 108.431 72.9214 110.056 70.9207 110.056C68.9311 110.056 67.3174 108.442 67.3174 106.441C67.3174 104.441 68.9311 102.827 70.9207 102.827ZM69.4285 113.416C71.9597 113.416 74.0157 115.472 74.0157 118.003C74.0157 120.534 71.9597 122.59 69.4285 122.59C66.8973 122.59 64.8414 120.534 64.8414 118.003C64.8414 115.472 66.8973 113.416 69.4285 113.416ZM60.4201 108.818C62.0781 108.818 63.4266 110.166 63.4266 111.824C63.4266 113.482 62.0781 114.831 60.4201 114.831C58.7621 114.831 57.4136 113.482 57.4136 111.824C57.4136 110.155 58.7621 108.818 60.4201 108.818ZM57.7894 117.362C59.7459 117.362 61.3265 118.942 61.3265 120.899C61.3265 122.844 59.7459 124.436 57.7894 124.436C55.844 124.436 54.2524 122.855 54.2524 120.899C54.2524 118.954 55.844 117.362 57.7894 117.362Z" fill="#8F1816"/>
</g>
</svg>
