<svg width="138" height="138" viewBox="0 0 138 138" fill="none" xmlns="http://www.w3.org/2000/svg">
<path d="M115.174 32.3518C94.9334 6.85111 57.8563 2.58585 32.3556 22.8219C6.85498 43.0627 2.58973 80.1398 22.8258 105.64C43.0666 131.141 80.1437 135.406 105.649 115.17C131.14 94.9343 135.41 57.8524 115.174 32.3518Z" fill="white"/>
<path d="M123.045 26.1069C99.3565 -3.74028 55.958 -8.73236 26.106 14.9513C-3.7412 38.6397 -8.73327 82.0429 14.9551 111.89C38.6436 141.742 82.042 146.734 111.894 123.046C141.741 99.3526 146.733 55.9541 123.045 26.1069ZM104.435 113.645C79.7755 133.212 43.9225 129.09 24.3511 104.431C4.78453 79.7716 8.90632 43.9186 33.5654 24.352C58.2245 4.78065 94.0775 8.90723 113.644 33.5663C133.215 58.2254 129.089 94.0784 104.435 113.645Z" fill="#8F1816"/>
<path d="M16.9491 67.6884C17.2742 55.0887 22.1515 42.6898 31.2702 33.1217L65.8369 67.6884H16.9491ZM67.6874 72.1593L33.1207 106.726C42.6888 115.845 55.0877 120.722 67.6874 121.047V72.1593ZM16.9443 70.3088C17.2073 81.2253 20.8987 92.1515 28.2099 101.366C29.1854 102.595 30.2086 103.757 31.2702 104.871L65.8321 70.304H16.9443V70.3088ZM72.1583 70.3088L106.725 104.875C115.839 95.3121 120.721 82.9085 121.041 70.3088H72.1583ZM67.6874 65.8379V16.9453C56.7708 17.2131 45.8447 20.895 36.6304 28.2109C35.4015 29.1864 34.2396 30.2097 33.1255 31.2712L67.6874 65.8379ZM70.3077 16.9501V65.8331L104.874 31.2664C95.3111 22.1525 82.9075 17.2752 70.3077 16.9501ZM70.3077 72.1641V121.052C81.2291 120.784 92.1552 117.097 101.369 109.786C102.598 108.811 103.756 107.788 104.874 106.726L70.3077 72.1641ZM106.725 33.1217L72.1583 67.6884H121.051C120.783 56.7719 117.096 45.8457 109.785 36.6315C108.81 35.3978 107.786 34.2406 106.725 33.1217Z" fill="#B44418"/>
<path d="M71.3454 70.0217L100.322 98.4679C107.696 90.6499 111.66 80.5653 111.98 70.3086L71.3454 70.0217Z" fill="#FBB040"/>
<path d="M100.318 39.5337L71.3454 68.0564L111.99 67.6882C111.727 58.7465 108.681 49.8095 102.689 42.2593C101.929 41.3077 101.135 40.404 100.318 39.5337Z" fill="#FBB040"/>
<path d="M95.7367 102.685C96.6883 101.93 97.592 101.131 98.4623 100.314L70.0352 71.4944L70.3078 111.99C79.2495 111.723 88.1912 108.677 95.7367 102.685Z" fill="#FBB040"/>
<path d="M70.3078 26.0159L70.0352 66.6362L98.467 37.6736C90.649 30.3002 80.5645 26.3362 70.3078 26.0159Z" fill="#FBB040"/>
<path d="M66.7311 68.0563L37.6729 39.5288C30.2995 47.3516 26.3355 57.4314 26.0151 67.6881L66.7311 68.0563Z" fill="#FBB040"/>
<path d="M26.0056 70.3086C26.2734 79.2503 29.3193 88.1873 35.3059 95.7328C36.0614 96.6843 36.86 97.5881 37.6776 98.4631L66.5398 70.0217L26.0056 70.3086Z" fill="#FBB040"/>
<path d="M42.2633 35.3067C41.307 36.0622 40.408 36.8607 39.533 37.6784L67.9887 66.4975L67.6874 26.0063C58.7457 26.2741 49.8088 29.3201 42.2633 35.3067Z" fill="#FBB040"/>
<path d="M67.9887 71.4944L39.5282 100.318C47.3462 107.692 57.4355 111.66 67.6874 111.976L67.9887 71.4944Z" fill="#FBB040"/>
<path d="M96.363 79.6138C92.3942 79.6138 89.1714 82.8366 89.1714 86.8054C89.1714 86.858 89.1762 86.9106 89.1762 86.9632L92.7672 90.5542C92.9537 89.9183 93.5179 89.4449 94.2113 89.4449C95.0576 89.4449 95.7414 90.1287 95.7414 90.975C95.7414 91.6684 95.268 92.2326 94.632 92.4191L96.2052 93.9922C96.2578 93.9922 96.3104 94.0018 96.363 94.0018C100.337 94.0018 103.555 90.7838 103.555 86.8102C103.555 82.8366 100.337 79.6138 96.363 79.6138ZM91.3901 87.2692C90.9167 87.2692 90.5294 86.8819 90.5294 86.4085C90.5294 85.9351 90.9167 85.5526 91.3901 85.5526C91.8635 85.5526 92.246 85.9351 92.246 86.4085C92.246 86.8819 91.8635 87.2692 91.3901 87.2692ZM93.4653 82.7314C93.4653 81.9377 94.1061 81.3017 94.8951 81.3017C95.6888 81.3017 96.3296 81.9424 96.3296 82.7314C96.3296 83.5204 95.6888 84.1611 94.8951 84.1611C94.1109 84.1659 93.4653 83.5252 93.4653 82.7314ZM95.3541 88.3451C94.6368 88.3451 94.0535 87.7617 94.0535 87.0445C94.0535 86.3272 94.6368 85.7439 95.3541 85.7439C96.0713 85.7439 96.6547 86.3272 96.6547 87.0445C96.6595 87.7617 96.0761 88.3451 95.3541 88.3451ZM99.2511 91.7066C98.1561 91.7066 97.2668 90.8172 97.2668 89.7222C97.2668 88.6272 98.1561 87.7378 99.2511 87.7378C100.346 87.7378 101.236 88.6272 101.236 89.7222C101.236 90.8172 100.346 91.7066 99.2511 91.7066ZM99.8967 86.2794C99.036 86.2794 98.3378 85.5813 98.3378 84.7158C98.3378 83.8551 99.036 83.1522 99.8967 83.1522C100.757 83.1522 101.46 83.8503 101.46 84.7158C101.456 85.5813 100.757 86.2794 99.8967 86.2794Z" fill="#8F1816"/>
<path d="M95.6028 66.5027C95.6028 62.5291 92.3847 59.311 88.4112 59.311C84.4424 59.311 81.2195 62.5339 81.2195 66.5027C81.2195 66.8948 81.2578 67.2725 81.3199 67.6503H86.4746C86.245 67.416 86.1016 67.0956 86.1016 66.7418C86.1016 66.0245 86.685 65.4411 87.4022 65.4411C88.1195 65.4411 88.7028 66.0245 88.7028 66.7418C88.7028 67.0956 88.5594 67.416 88.3299 67.6503H90.4147C90.6777 67.5164 90.9789 67.4351 91.2993 67.4351C91.6197 67.4351 91.9161 67.5164 92.1839 67.6503H95.5072C95.5598 67.2725 95.6028 66.89 95.6028 66.5027ZM83.4334 66.9617C82.96 66.9617 82.5727 66.5744 82.5727 66.101C82.5727 65.6276 82.96 65.2403 83.4334 65.2403C83.9068 65.2403 84.2894 65.6276 84.2894 66.101C84.2894 66.5792 83.9068 66.9617 83.4334 66.9617ZM86.9432 63.8584C86.1542 63.8584 85.5087 63.2177 85.5087 62.4287C85.5087 61.6397 86.1494 60.999 86.9432 60.999C87.7322 60.999 88.3777 61.6397 88.3777 62.4287C88.3777 63.2177 87.7369 63.8584 86.9432 63.8584ZM91.94 65.9719C91.0793 65.9719 90.3764 65.2738 90.3764 64.4083C90.3764 63.5476 91.0745 62.8447 91.94 62.8447C92.8007 62.8447 93.4988 63.5428 93.4988 64.4083C93.5036 65.2738 92.8055 65.9719 91.94 65.9719Z" fill="#8F1816"/>
<path d="M91.2945 71.399C90.539 71.399 89.8887 70.9734 89.554 70.3518H87.7226C87.7465 70.457 87.7895 70.5574 87.7895 70.6674C87.7895 71.5137 87.1057 72.1975 86.2642 72.1975C85.4178 72.1975 84.734 71.5137 84.734 70.6674C84.734 70.5574 84.7723 70.457 84.7962 70.3518H82.3432C83.6199 72.3601 85.8577 73.6942 88.4111 73.6942C90.9646 73.6942 93.2024 72.3601 94.4791 70.3518H93.035C92.7003 70.9686 92.05 71.399 91.2945 71.399Z" fill="#8F1816"/>
<path d="M94.9142 41.0881C92.1074 41.6619 89.8934 43.8759 89.3196 46.6827L94.9142 41.0881Z" fill="#8F1816"/>
<path d="M108.513 70.3469C108.466 71.0211 107.92 71.5615 107.232 71.5615C106.548 71.5615 105.998 71.0259 105.95 70.3469H103.698C103.569 70.4234 103.426 70.4808 103.263 70.4808C103.1 70.4808 102.962 70.4234 102.833 70.3469H101.068C101.24 74.1675 104.382 77.2134 108.246 77.2134C112.104 77.2134 115.246 74.1675 115.418 70.3469H108.513ZM106.094 75.7167C105.247 75.7167 104.564 75.033 104.564 74.1866C104.564 73.3403 105.247 72.6565 106.094 72.6565C106.94 72.6565 107.624 73.3403 107.624 74.1866C107.624 75.033 106.94 75.7167 106.094 75.7167ZM111.129 74.9182C110.034 74.9182 109.145 74.0288 109.145 72.9338C109.145 71.8388 110.034 70.9494 111.129 70.9494C112.224 70.9494 113.113 71.8388 113.113 72.9338C113.113 74.0288 112.224 74.9182 111.129 74.9182Z" fill="#8F1816"/>
<path d="M101.46 67.6455H110.273C110.412 66.9282 111.019 66.3735 111.779 66.3735C112.539 66.3735 113.142 66.9282 113.281 67.6455H115.026C114.046 64.8434 111.382 62.8303 108.246 62.8303C105.104 62.8303 102.445 64.8434 101.46 67.6455ZM106.778 67.3825C105.989 67.3825 105.343 66.7417 105.343 65.9528C105.343 65.1638 105.984 64.5183 106.778 64.5183C107.567 64.5183 108.207 65.159 108.207 65.9528C108.207 66.7465 107.567 67.3825 106.778 67.3825Z" fill="#8F1816"/>
<path d="M81.2195 44.1145C85.1883 44.1145 88.4111 40.8964 88.4111 36.9228C88.4111 32.9541 85.1931 29.7312 81.2195 29.7312C77.2459 29.7312 74.0279 32.9493 74.0279 36.9228C74.0279 40.8964 77.2459 44.1145 81.2195 44.1145ZM84.7484 33.2744C85.6091 33.2744 86.312 33.9725 86.312 34.838C86.312 35.6987 85.6091 36.4016 84.7484 36.4016C83.8877 36.4016 83.1848 35.7035 83.1848 34.838C83.1896 33.9725 83.8877 33.2744 84.7484 33.2744ZM84.1028 37.8505C85.1978 37.8505 86.0872 38.7399 86.0872 39.8349C86.0872 40.9299 85.1978 41.8193 84.1028 41.8193C83.0078 41.8193 82.1185 40.9299 82.1185 39.8349C82.1185 38.7399 83.0078 37.8505 84.1028 37.8505ZM81.5112 37.1619C81.5112 37.884 80.9278 38.4625 80.2106 38.4625C79.4933 38.4625 78.91 37.8792 78.91 37.1619C78.91 36.4447 79.4933 35.8613 80.2106 35.8613C80.9278 35.8613 81.5112 36.4399 81.5112 37.1619ZM79.7515 31.4191C80.5405 31.4191 81.186 32.0599 81.186 32.8488C81.186 33.6426 80.5453 34.2833 79.7515 34.2833C78.9625 34.2833 78.3218 33.6426 78.3218 32.8488C78.3218 32.0599 78.9625 31.4191 79.7515 31.4191ZM79.0677 39.5623C79.9141 39.5623 80.5979 40.2461 80.5979 41.0925C80.5979 41.934 79.9141 42.6178 79.0677 42.6178C78.2262 42.6178 77.5376 41.934 77.5376 41.0925C77.5376 40.2461 78.2262 39.5623 79.0677 39.5623ZM75.3811 36.526C75.3811 36.0526 75.7684 35.6653 76.2418 35.6653C76.7152 35.6653 77.1025 36.0526 77.1025 36.526C77.1025 36.9993 76.7152 37.3867 76.2418 37.3867C75.7684 37.3819 75.3811 36.9993 75.3811 36.526Z" fill="#8F1816"/>
<path d="M70.3603 44.6646C70.9102 44.8654 71.3119 45.377 71.3119 45.9987C71.3119 46.6203 70.9102 47.1319 70.3603 47.3327V49.0111C71.068 49.0255 71.637 49.5993 71.637 50.3069C71.637 51.0146 71.068 51.5884 70.3603 51.6028V53.2811C70.5755 53.5441 70.7237 53.8693 70.7237 54.2327C70.7237 54.6009 70.5755 54.9213 70.3603 55.189V57.1878C70.6807 57.2308 71.0106 57.2595 71.3453 57.2595C75.3141 57.2595 78.537 54.0414 78.537 50.0679C78.537 46.0943 75.3141 42.8762 71.3453 42.8762C71.0106 42.8762 70.6855 42.9049 70.3603 42.9527V44.6646ZM74.879 46.4242C75.7397 46.4242 76.4426 47.1223 76.4426 47.9878C76.4426 48.8485 75.7397 49.5514 74.879 49.5514C74.0135 49.5514 73.3154 48.8533 73.3154 47.9878C73.3154 47.1223 74.0135 46.4242 74.879 46.4242ZM74.2287 51.0003C75.3237 51.0003 76.2131 51.8897 76.2131 52.9847C76.2131 54.0797 75.3237 54.9691 74.2287 54.9691C73.1337 54.9691 72.2443 54.0797 72.2443 52.9847C72.2443 51.8897 73.1337 51.0003 74.2287 51.0003Z" fill="#8F1816"/>
<path d="M81.9846 97.6074C78.011 97.6074 74.7929 100.83 74.7929 104.799C74.7929 108.773 78.011 111.991 81.9846 111.991C85.9581 111.991 89.1762 108.768 89.1762 104.799C89.1762 100.825 85.9534 97.6074 81.9846 97.6074ZM80.5166 99.2906C81.3056 99.2906 81.9511 99.9313 81.9511 100.72C81.9511 101.514 81.3104 102.155 80.5166 102.155C79.7276 102.155 79.0821 101.514 79.0821 100.72C79.0869 99.9361 79.7276 99.2906 80.5166 99.2906ZM77.0069 105.258C76.5335 105.258 76.1462 104.876 76.1462 104.397C76.1462 103.924 76.5335 103.537 77.0069 103.537C77.4802 103.537 77.8676 103.924 77.8676 104.397C77.8628 104.876 77.4802 105.258 77.0069 105.258ZM79.8328 110.494C78.9913 110.494 78.3027 109.81 78.3027 108.964C78.3027 108.118 78.9865 107.434 79.8328 107.434C80.6792 107.434 81.363 108.118 81.363 108.964C81.363 109.805 80.6792 110.494 79.8328 110.494ZM80.9709 106.334C80.2536 106.334 79.6703 105.751 79.6703 105.033C79.6703 104.316 80.2536 103.733 80.9709 103.733C81.6881 103.733 82.2715 104.316 82.2715 105.033C82.2715 105.755 81.6929 106.334 80.9709 106.334ZM84.8679 109.695C83.7729 109.695 82.8835 108.806 82.8835 107.711C82.8835 106.616 83.7729 105.727 84.8679 105.727C85.9629 105.727 86.8523 106.616 86.8523 107.711C86.8523 108.806 85.9629 109.695 84.8679 109.695ZM85.5135 104.268C84.6528 104.268 83.9498 103.57 83.9498 102.705C83.9498 101.844 84.648 101.141 85.5135 101.141C86.3742 101.141 87.0723 101.839 87.0723 102.705C87.0771 103.57 86.3742 104.268 85.5135 104.268Z" fill="#8F1816"/>
<path d="M55.671 52.1194C55.2502 52.1194 54.8438 52.1624 54.4421 52.2294L58.2388 56.026C58.5065 55.8108 58.8317 55.6626 59.2047 55.6626C60.0654 55.6626 60.7635 56.3607 60.7635 57.2214C60.7635 57.5944 60.6153 57.9196 60.4001 58.1873L62.7527 60.5399C62.8196 60.1382 62.8674 59.7318 62.8674 59.311C62.8626 55.3374 59.6446 52.1194 55.671 52.1194Z" fill="#8F1816"/>
<path d="M52.9693 90.4158C48.9958 90.4158 45.7777 93.6338 45.7777 97.6074C45.7777 101.581 48.9958 104.799 52.9693 104.799C56.9429 104.799 60.161 101.581 60.161 97.6074C60.161 93.6338 56.9429 90.4158 52.9693 90.4158ZM51.5062 92.0989C52.2951 92.0989 52.9407 92.7397 52.9407 93.5286C52.9407 94.3224 52.2999 94.9631 51.5062 94.9631C50.7172 94.9631 50.0717 94.3224 50.0717 93.5286C50.0717 92.7397 50.7124 92.0989 51.5062 92.0989ZM47.9916 98.0664C47.5182 98.0664 47.1309 97.6839 47.1309 97.2057C47.1309 96.7324 47.5182 96.345 47.9916 96.345C48.465 96.345 48.8475 96.7324 48.8475 97.2057C48.8475 97.6839 48.465 98.0664 47.9916 98.0664ZM50.8176 103.302C49.976 103.302 49.2875 102.619 49.2875 101.772C49.2875 100.926 49.9712 100.242 50.8176 100.242C51.6639 100.242 52.3477 100.926 52.3477 101.772C52.3477 102.614 51.6639 103.302 50.8176 103.302ZM51.9604 99.1423C51.2432 99.1423 50.6598 98.559 50.6598 97.8417C50.6598 97.1245 51.2432 96.5411 51.9604 96.5411C52.6777 96.5411 53.261 97.1245 53.261 97.8417C53.261 98.5637 52.6777 99.1423 51.9604 99.1423ZM55.8527 102.504C54.7577 102.504 53.8683 101.614 53.8683 100.519C53.8683 99.4244 54.7577 98.535 55.8527 98.535C56.9477 98.535 57.8371 99.4244 57.8371 100.519C57.8371 101.614 56.9477 102.504 55.8527 102.504ZM56.4982 97.0766C55.6375 97.0766 54.9394 96.3785 54.9394 95.513C54.9394 94.6523 55.6375 93.9494 56.4982 93.9494C57.3589 93.9494 58.0618 94.6476 58.0618 95.513C58.0618 96.3785 57.3637 97.0766 56.4982 97.0766Z" fill="#8F1816"/>
<path d="M48.4794 59.306C48.4794 63.2796 51.6975 66.4977 55.671 66.4977C58.1766 66.4977 60.381 65.2162 61.6673 63.27L60.534 62.1368C60.534 62.1655 60.5436 62.1894 60.5436 62.2181C60.5436 63.3131 59.6542 64.2025 58.5592 64.2025C57.4642 64.2025 56.5748 63.3131 56.5748 62.2181C56.5748 61.1231 57.4642 60.2337 58.5592 60.2337C58.5879 60.2337 58.6118 60.2432 58.6405 60.2432L54.8773 56.4753C54.6765 56.5853 54.4565 56.6618 54.2078 56.6618C53.4189 56.6618 52.7733 56.021 52.7733 55.232C52.7733 54.9882 52.8546 54.7634 52.9646 54.5674L51.707 53.3098C49.7657 54.6009 48.4794 56.8052 48.4794 59.306ZM54.6621 58.2445C55.3841 58.2445 55.9627 58.8279 55.9627 59.5451C55.9627 60.2624 55.3794 60.8457 54.6621 60.8457C53.9449 60.8457 53.3615 60.2624 53.3615 59.5451C53.3615 58.8279 53.9449 58.2445 54.6621 58.2445ZM53.5241 61.9455C54.3704 61.9455 55.0494 62.6293 55.0494 63.4757C55.0494 64.3172 54.3656 65.0058 53.5241 65.0058C52.6777 65.0058 51.9939 64.322 51.9939 63.4757C51.9939 62.6293 52.6777 61.9455 53.5241 61.9455ZM51.554 58.9091C51.554 59.3825 51.1715 59.7699 50.6981 59.7699C50.2247 59.7699 49.8374 59.3873 49.8374 58.9091C49.8374 58.4358 50.2247 58.0532 50.6981 58.0532C51.1667 58.0532 51.554 58.4358 51.554 58.9091Z" fill="#8F1816"/>
<path d="M67.6587 88.1444C67.3861 88.0009 67.1948 87.7236 67.1948 87.3936C67.1948 87.0637 67.3861 86.7864 67.6587 86.6429V83.0232C66.5302 84.2903 65.8369 85.9591 65.8369 87.7953C65.8369 89.6267 66.5254 91.2955 67.6587 92.5674V88.1444Z" fill="#8F1816"/>
<path d="M60.6249 79.2026L55.9149 83.9126C58.1527 83.2097 59.922 81.4452 60.6249 79.2026Z" fill="#8F1816"/>
<path d="M54.6621 79.963C54.6621 78.868 55.5515 77.9786 56.6465 77.9786C57.0386 77.9786 57.402 78.0981 57.708 78.2942L60.7205 75.2817C60.1467 73.02 58.5018 71.1838 56.3548 70.3518H51.1619C48.4794 71.3942 46.5667 74.0002 46.5667 77.0509C46.5667 80.4124 48.8763 83.2241 51.9892 84.013L54.9777 81.0245C54.7817 80.7185 54.6621 80.3551 54.6621 79.963ZM57.292 73.4025C58.1527 73.4025 58.8509 74.1006 58.8509 74.9661C58.8509 75.8268 58.1527 76.5297 57.292 76.5297C56.4313 76.5297 55.7332 75.8316 55.7332 74.9661C55.7332 74.1006 56.4313 73.4025 57.292 73.4025ZM52.2952 71.5472C53.0842 71.5472 53.7249 72.188 53.7249 72.9769C53.7249 73.7707 53.0842 74.4114 52.2952 74.4114C51.5062 74.4114 50.8607 73.7707 50.8607 72.9769C50.8655 72.188 51.5062 71.5472 52.2952 71.5472ZM48.7854 77.51C48.3121 77.51 47.9247 77.1226 47.9247 76.6493C47.9247 76.1759 48.3073 75.7886 48.7854 75.7886C49.2588 75.7886 49.6414 76.1759 49.6414 76.6493C49.6414 77.1274 49.2588 77.51 48.7854 77.51ZM51.6114 82.7459C50.7651 82.7459 50.0813 82.0621 50.0813 81.2205C50.0813 80.3742 50.7651 79.6904 51.6114 79.6904C52.4578 79.6904 53.1415 80.3742 53.1415 81.2205C53.1415 82.0621 52.4578 82.7459 51.6114 82.7459ZM52.7494 78.5906C52.0322 78.5906 51.4488 78.0073 51.4488 77.29C51.4488 76.5728 52.0322 75.9894 52.7494 75.9894C53.4715 75.9894 54.0501 76.5728 54.0501 77.29C54.0501 78.0073 53.4715 78.5906 52.7494 78.5906Z" fill="#8F1816"/>
<path d="M38.5861 62.5195C42.5597 62.5195 45.7778 59.3014 45.7778 55.3279C45.7778 51.3543 42.5549 48.1362 38.5861 48.1362C34.6126 48.1362 31.3945 51.3591 31.3945 55.3279C31.3945 59.2967 34.6126 62.5195 38.5861 62.5195ZM42.1198 51.6747C42.9805 51.6747 43.6786 52.3728 43.6786 53.2383C43.6786 54.099 42.9805 54.8019 42.1198 54.8019C41.2591 54.8019 40.5562 54.1038 40.5562 53.2383C40.5562 52.3776 41.2543 51.6747 42.1198 51.6747ZM41.4695 56.2555C42.5645 56.2555 43.4539 57.1449 43.4539 58.2399C43.4539 59.3349 42.5645 60.2243 41.4695 60.2243C40.3745 60.2243 39.4851 59.3349 39.4851 58.2399C39.4899 57.1449 40.3745 56.2555 41.4695 56.2555ZM38.8778 55.5622C38.8778 56.2794 38.2945 56.8628 37.5772 56.8628C36.8599 56.8628 36.2766 56.2794 36.2766 55.5622C36.2766 54.8449 36.8599 54.2616 37.5772 54.2616C38.2945 54.2663 38.8778 54.8449 38.8778 55.5622ZM37.1229 49.8242C37.9119 49.8242 38.5574 50.4649 38.5574 51.2539C38.5574 52.0429 37.9167 52.6836 37.1229 52.6836C36.334 52.6836 35.6932 52.0429 35.6932 51.2539C35.6884 50.4649 36.3292 49.8242 37.1229 49.8242ZM36.4344 57.9626C37.2807 57.9626 37.9645 58.6463 37.9645 59.4927C37.9645 60.3343 37.2807 61.0228 36.4344 61.0228C35.5928 61.0228 34.9042 60.3391 34.9042 59.4927C34.909 58.6511 35.5928 57.9626 36.4344 57.9626ZM32.7477 54.931C32.7477 54.4576 33.135 54.0703 33.6084 54.0703C34.0818 54.0703 34.4691 54.4528 34.4691 54.931C34.4691 55.4092 34.0818 55.7917 33.6084 55.7917C33.135 55.7869 32.7477 55.4044 32.7477 54.931Z" fill="#8F1816"/>
<path d="M80.2201 87.7905C80.2201 83.8169 77.0021 80.5989 73.0285 80.5989C72.0865 80.5989 71.1876 80.7854 70.3603 81.1153V82.9897C70.6137 82.5785 71.0489 82.2868 71.5653 82.2868C72.3543 82.2868 72.9998 82.9275 72.9998 83.7165C72.9998 84.5055 72.3591 85.151 71.5653 85.151C71.0489 85.151 70.6137 84.8593 70.3603 84.4481V90.5352C70.5229 90.473 70.695 90.43 70.8815 90.43C71.7279 90.43 72.4117 91.1138 72.4117 91.9553C72.4117 92.8017 71.7279 93.4855 70.8815 93.4855C70.695 93.4855 70.5229 93.4424 70.3603 93.3803V94.4657C71.1828 94.7957 72.0865 94.9821 73.0285 94.9821C77.0021 94.9821 80.2201 91.7593 80.2201 87.7905ZM76.5622 84.1373C77.4229 84.1373 78.121 84.8354 78.121 85.7009C78.121 86.5616 77.4229 87.2645 76.5622 87.2645C75.7015 87.2645 75.0033 86.5664 75.0033 85.7009C75.0033 84.8354 75.7015 84.1373 76.5622 84.1373ZM72.0196 89.3302C71.3023 89.3302 70.7189 88.7469 70.7189 88.0296C70.7189 87.3123 71.3023 86.729 72.0196 86.729C72.7416 86.729 73.3202 87.3123 73.3202 88.0296C73.3202 88.7469 72.7416 89.3302 72.0196 89.3302ZM75.9166 92.6869C74.8216 92.6869 73.9322 91.7976 73.9322 90.7026C73.9322 89.6076 74.8216 88.7181 75.9166 88.7181C77.0116 88.7181 77.901 89.6076 77.901 90.7026C77.901 91.7976 77.0116 92.6869 75.9166 92.6869Z" fill="#8F1816"/>
<path d="M55.671 43.3545C59.6446 43.3545 62.8627 40.1316 62.8627 36.1628C62.8627 32.194 59.6446 28.9712 55.671 28.9712C51.7023 28.9712 48.4794 32.194 48.4794 36.1628C48.4794 40.1364 51.7023 43.3545 55.671 43.3545ZM59.2047 32.5144C60.0654 32.5144 60.7635 33.2125 60.7635 34.078C60.7635 34.9387 60.0654 35.6416 59.2047 35.6416C58.344 35.6416 57.6411 34.9435 57.6411 34.078C57.6411 33.2125 58.344 32.5144 59.2047 32.5144ZM58.5592 37.0952C59.6542 37.0952 60.5436 37.9846 60.5436 39.0796C60.5436 40.1746 59.6542 41.064 58.5592 41.064C57.4642 41.064 56.5748 40.1746 56.5748 39.0796C56.57 37.9799 57.4594 37.0952 58.5592 37.0952ZM55.9627 36.4019C55.9627 37.1192 55.3794 37.7025 54.6621 37.7025C53.9449 37.7025 53.3615 37.1192 53.3615 36.4019C53.3615 35.6847 53.9449 35.1013 54.6621 35.1013C55.3841 35.1013 55.9627 35.6847 55.9627 36.4019ZM54.2078 30.6591C54.9968 30.6591 55.6424 31.2999 55.6424 32.0888C55.6424 32.8826 55.0016 33.5233 54.2078 33.5233C53.4189 33.5233 52.7733 32.8826 52.7733 32.0888C52.7733 31.2999 53.4189 30.6591 54.2078 30.6591ZM53.5241 38.8023C54.3704 38.8023 55.0494 39.4861 55.0494 40.3325C55.0494 41.1788 54.3656 41.8626 53.5241 41.8626C52.6777 41.8626 51.9939 41.1788 51.9939 40.3325C51.9939 39.4861 52.6777 38.8023 53.5241 38.8023ZM49.8374 35.7659C49.8374 35.2926 50.2247 34.9052 50.6981 34.9052C51.1715 34.9052 51.554 35.2926 51.554 35.7659C51.554 36.2393 51.1715 36.6267 50.6981 36.6267C50.2199 36.6267 49.8374 36.2393 49.8374 35.7659Z" fill="#8F1816"/>
<path d="M67.6587 56.2411V43.9092C65.5596 45.1668 64.1537 47.4524 64.1537 50.0775C64.1537 52.6931 65.5643 54.9835 67.6587 56.2411ZM65.507 49.6759C65.507 49.2025 65.8943 48.8152 66.3677 48.8152C66.841 48.8152 67.2284 49.2025 67.2284 49.6759C67.2284 50.1493 66.841 50.5366 66.3677 50.5366C65.8943 50.5366 65.507 50.1493 65.507 49.6759Z" fill="#8F1816"/>
<path d="M96.3631 55.3279C100.337 55.3279 103.555 52.1099 103.555 48.1363C103.555 44.9278 101.451 42.207 98.5435 41.2842L96.2387 43.5937C96.2913 43.742 96.3344 43.8998 96.3344 44.0671C96.3344 44.8561 95.6936 45.5016 94.8999 45.5016C94.7325 45.5016 94.5795 45.4586 94.4265 45.406L92.2174 47.6151C92.2269 47.6581 92.246 47.6964 92.246 47.7442C92.246 48.2176 91.8635 48.6049 91.3901 48.6049C91.3423 48.6049 91.304 48.5858 91.2562 48.5762L89.5109 50.3215C90.4338 53.2192 93.1546 55.3279 96.3631 55.3279ZM99.8967 44.4831C100.757 44.4831 101.46 45.1812 101.46 46.0467C101.46 46.9074 100.762 47.6103 99.8967 47.6103C99.036 47.6103 98.3379 46.9122 98.3379 46.0467C98.3379 45.1812 99.036 44.4831 99.8967 44.4831ZM99.2512 49.064C100.346 49.064 101.236 49.9533 101.236 51.0483C101.236 52.1433 100.346 53.0328 99.2512 53.0328C98.1562 53.0328 97.2668 52.1433 97.2668 51.0483C97.2668 49.9533 98.1562 49.064 99.2512 49.064ZM95.3541 47.0748C96.0714 47.0748 96.6547 47.6581 96.6547 48.3754C96.6547 49.0926 96.0714 49.676 95.3541 49.676C94.6369 49.676 94.0535 49.0926 94.0535 48.3754C94.0535 47.6534 94.6369 47.0748 95.3541 47.0748ZM94.2161 50.771C95.0624 50.771 95.7462 51.4548 95.7462 52.3012C95.7462 53.1427 95.0624 53.8313 94.2161 53.8313C93.3745 53.8313 92.686 53.1475 92.686 52.3012C92.686 51.4596 93.3745 50.771 94.2161 50.771Z" fill="#8F1816"/>
<path d="M36.2718 85.8779C40.2454 85.8779 43.4634 82.6598 43.4634 78.6863C43.4634 74.7127 40.2406 71.4946 36.2718 71.4946C32.2982 71.4946 29.0802 74.7175 29.0802 78.6863C29.0802 82.6598 32.303 85.8779 36.2718 85.8779ZM39.8055 75.0379C40.6662 75.0379 41.3691 75.736 41.3691 76.6015C41.3691 77.4622 40.6662 78.1651 39.8055 78.1651C38.9448 78.1651 38.2418 77.4669 38.2418 76.6015C38.2466 75.736 38.9448 75.0379 39.8055 75.0379ZM39.1599 79.6187C40.2549 79.6187 41.1443 80.5081 41.1443 81.6031C41.1443 82.6981 40.2549 83.5875 39.1599 83.5875C38.0649 83.5875 37.1755 82.6981 37.1755 81.6031C37.1755 80.5033 38.0649 79.6187 39.1599 79.6187ZM36.5635 78.9254C36.5635 79.6426 35.9801 80.226 35.2629 80.226C34.5456 80.226 33.9623 79.6426 33.9623 78.9254C33.9623 78.2081 34.5456 77.6247 35.2629 77.6247C35.9801 77.6247 36.5635 78.2081 36.5635 78.9254ZM34.8086 73.1826C35.5976 73.1826 36.2431 73.8233 36.2431 74.6123C36.2431 75.4013 35.6024 76.042 34.8086 76.042C34.0196 76.042 33.3789 75.4013 33.3789 74.6123C33.3789 73.8233 34.0196 73.1826 34.8086 73.1826ZM34.1248 81.3257C34.9712 81.3257 35.655 82.0095 35.655 82.8559C35.655 83.6975 34.9712 84.386 34.1248 84.386C33.2833 84.386 32.5947 83.7022 32.5947 82.8559C32.5947 82.0095 33.2833 81.3257 34.1248 81.3257ZM30.4382 78.2894C30.4382 77.816 30.8255 77.4287 31.2989 77.4287C31.7723 77.4287 32.1596 77.8112 32.1596 78.2894C32.1596 78.7675 31.7723 79.1501 31.2989 79.1501C30.8207 79.1501 30.4382 78.7628 30.4382 78.2894Z" fill="#8F1816"/>
</svg>
